<?xml version="1.0" encoding="UTF-8"?>
<svg width="245px" height="413px" viewBox="0 0 245 413" version="1.1" xmlns="http://www.w3.org/2000/svg" xmlns:xlink="http://www.w3.org/1999/xlink">
    <!-- Generator: Sketch 63.1 (92452) - https://sketch.com -->
    <title>Artboard</title>
    <desc>Created with Sketch.</desc>
    <g id="Artboard" stroke="none" stroke-width="1" fill="none" fill-rule="evenodd">
        <g id="Group-58">
            <path d="M243.709,195.755597 C244.454,195.755597 244.594,195.9726 244.589,196.6686 C244.555,200.7426 244.55,204.8176 244.592,208.8926 C244.599055,209.6516 244.347,209.7636 243.667,209.7616 C237.297,209.7356 230.927,209.7596 224.558,209.7276 C223.818,209.7236 223.555,209.8486 223.588,210.6546 C223.659,212.3636 223.649,214.0796 223.592,215.7896 C223.566,216.5376 223.736,216.7586 224.528,216.7536 C230.864,216.7156 237.2,216.7506 243.535,216.7106 C244.385,216.7056 244.633,216.8976 244.595,217.7626 C244.518,219.4716 244.537,221.1866 244.589,222.8976 C244.609,223.5846 244.394,223.7356 243.737,223.7336 C237.333,223.7096 230.929,223.7366 224.524,223.6956 C223.721,223.6906 223.568,223.9216 223.593,224.6596 C223.647,226.3706 223.661,228.0856 223.588,229.7946 C223.552,230.6086 223.834,230.7246 224.561,230.7216 C230.896,230.6926 237.232,230.7176 243.568,230.6886 C244.325,230.6856 244.635,230.8116 244.595,231.6656 C244.517,233.3406 244.53,235.0216 244.59,236.6976 C244.618,237.4796 244.43,237.7186 243.602,237.7136 C237.267,237.6746 230.931,237.7076 224.595,237.6716 C223.793,237.6666 223.559,237.8536 223.59,238.6656 C223.656,240.3756 223.649,242.0906 223.592,243.8016 C223.566,244.5286 223.773,244.6986 224.491,244.6956 C230.861,244.6656 237.231,244.6956 243.601,244.6566 C244.428,244.6516 244.618,244.8876 244.59,245.6716 C244.53,247.3466 244.517,249.0286 244.595,250.7036 C244.634,251.5556 244.327,251.6836 243.569,251.6806 C237.233,251.6516 230.897,251.6776 224.562,251.6466 C223.831,251.6426 223.552,251.7546 223.588,252.5686 C223.662,254.2436 223.658,255.9256 223.59,257.6006 C223.556,258.4296 223.742,258.6806 224.627,258.6746 C230.928,258.6306 237.229,258.6686 243.531,258.6306 C244.372,258.6246 244.636,258.8036 244.595,259.6776 C244.516,261.3506 244.526,263.0336 244.592,264.7086 C244.623,265.4856 244.402,265.6576 243.64,265.6556 C230.352,265.6306 217.063,265.6376 203.775,265.6386 C203.4,265.6386 203.024,265.6586 202.649,265.6696 C200.567,265.6586 198.486,265.6656 196.405,265.6266 C195.825,265.6156 195.64,265.8016 195.65,266.3826 C195.688,268.4626 195.683,270.5436 195.693,272.6246 C195.683,275.7746 195.663,278.9246 195.662,282.0736 C195.658,292.5526 195.649,303.0306 195.683,313.5096 C195.685,314.3616 195.485,314.575908 194.628,314.5646 C190.622,314.5136 186.614,314.5186 182.607,314.5626 C181.82,314.5706 181.664,314.3406 181.668,313.5936 C181.7,307.2586 181.674,300.9236 181.702,294.5886 C181.705,293.8336 181.584,293.5196 180.727,293.5596 C179.053,293.6386 177.37,293.6276 175.694,293.5636 C174.909,293.5346 174.673,293.7186 174.678,294.5466 C174.716,300.8816 174.685,307.2166 174.717,313.5516 C174.721,314.3346 174.554,314.5976 173.726,314.5636 C172.017,314.4926 170.301,314.5056 168.59,314.5596 C167.864,314.5826 167.69,314.3676 167.694,313.6516 C167.725,307.3166 167.686,300.9816 167.738,294.6476 C167.746,293.6996 167.466,293.5256 166.606,293.5626 C165,293.6326 163.383,293.6616 161.78,293.5546 C160.794,293.4876 160.702,293.8636 160.707,294.6926 C160.739,300.9596 160.708,307.2256 160.744,313.4916 C160.749,314.3156 160.6,314.6106 159.707,314.5656 C158.033,314.4836 156.351,314.5026 154.675,314.5606 C153.916,314.5876 153.713,314.3866 153.717,313.6086 C153.753,307.2736 153.717,300.9386 153.761,294.6036 C153.767,293.7266 153.528,293.5266 152.691,293.5616 C151.016,293.6326 149.333,293.6386 147.658,293.5586 C146.835,293.5196 146.73,293.8086 146.733,294.5306 C146.762,300.8316 146.733,307.1326 146.769,313.4326 C146.773,314.2756 146.657,314.6286 145.689,314.5696 C144.051,314.4706 142.401,314.5046 140.76,314.5586 C139.984,314.5856 139.735,314.3976 139.74,313.5646 C139.78,307.2306 139.746,300.8946 139.783,294.5606 C139.787,293.7486 139.573,293.5346 138.776,293.5636 C137.065,293.6276 135.351,293.6276 133.641,293.5616 C132.888,293.5336 132.756,293.7756 132.759,294.4706 C132.786,300.8056 132.75,307.1406 132.802,313.4756 C132.81,314.4206 132.535,314.5986 131.672,314.5626 C129.997,314.4926 128.316,314.5176 126.639,314.5546 C126.007,314.5686 125.77,314.4356 125.77,313.7266 C125.792,293.3186 125.791,272.9096 125.774,252.5016 C125.773,251.8476 125.918,251.6456 126.606,251.6476 C135.373,251.6736 144.141,251.6726 152.908,251.6486 C153.576,251.6476 153.759,251.8166 153.753,252.4906 C153.721,256.5646 153.761,260.6406 153.716,264.7156 C153.707,265.5006 153.923,265.6636 154.676,265.6566 C158.717,265.6166 162.758,265.6116 166.799,265.6596 C167.599,265.6696 167.731,265.4296 167.728,264.6926 C167.702,256.0636 167.73,247.4336 167.685,238.8046 C167.681,237.8246 167.984,237.6696 168.869,237.6726 C177.466,237.7046 186.061,237.6826 194.657,237.7076 C195.411,237.7096 195.695,237.5876 195.685,236.7346 C195.632,232.7286 195.641,228.7216 195.679,224.7156 C195.686,223.9436 195.53,223.6856 194.694,223.6966 C190.653,223.7456 186.611,223.7006 182.571,223.7346 C181.858,223.7416 181.666,223.5606 181.669,222.8356 C181.696,214.1026 181.696,205.3716 181.668,196.6386 C181.665,195.8996 181.877,195.755597 182.577,195.7576 C202.955,195.7766 223.332,195.7776 243.709,195.755597 Z M61.7703,195.749988 C62.7123,195.748 62.9283,195.992 62.9253,196.913 C62.8843,205.509 62.8833,214.105 62.9203,222.701 C62.9243,223.586 62.6703,223.748 61.8433,223.739 C57.8713,223.694 53.8973,223.739 49.9253,223.701 C49.1543,223.694 48.8943,223.848 48.9053,224.685 C48.9543,228.691 48.9483,232.699 48.9043,236.705 C48.8953,237.501 49.0883,237.714 49.8993,237.711 C58.5313,237.679 67.1623,237.707 75.7943,237.668 C76.6983,237.663 76.9043,237.879 76.8993,238.778 C76.8613,247.408 76.8893,256.037 76.8553,264.667 C76.8523,265.496 77.0933,265.663 77.8713,265.656 C81.8783,265.617 85.8853,265.608 89.8923,265.66 C90.7453,265.672 90.8743,265.388 90.8673,264.632 C90.8333,260.591 90.8643,256.55 90.8383,252.509 C90.8333,251.869 90.9593,251.645 91.6623,251.647 C100.4293,251.673 109.1983,251.671 117.9663,251.65 C118.6253,251.648 118.8163,251.803 118.8163,252.486 C118.7973,272.897 118.7973,293.308 118.8163,313.718 C118.8163,314.396 118.6343,314.563 117.9683,314.558 C113.8593,314.527 109.7493,314.524 105.6383,314.56 C104.9403,314.566 104.8093,314.344 104.8123,313.701 C104.8373,307.365 104.8143,301.029 104.8503,294.694 C104.8553,293.851 104.7393,293.495 103.7703,293.556 C102.1673,293.656 100.5513,293.633 98.9433,293.563 C98.0843,293.526 97.8033,293.701 97.8113,294.648 C97.8643,300.949 97.8243,307.25 97.8563,313.552 C97.8613,314.336 97.6913,314.598 96.8653,314.564 C95.1553,314.493 93.4393,314.503 91.7283,314.561 C91.0013,314.585 90.8303,314.378 90.8343,313.661 C90.8643,307.291 90.8343,300.921 90.8733,294.552 C90.8783,293.721 90.6343,293.538 89.8563,293.565 C88.1793,293.623 86.4973,293.639 84.8233,293.56 C83.9643,293.519 83.8443,293.836 83.8483,294.589 C83.8763,300.89 83.8473,307.192 83.8843,313.493 C83.8883,314.319 83.7363,314.61 82.8463,314.566 C81.1723,314.484 79.4893,314.499 77.8133,314.562 C77.0513,314.59 76.8523,314.396 76.8563,313.618 C76.8923,307.282 76.8573,300.946 76.8993,294.611 C76.9053,293.745 76.6863,293.525 75.8373,293.562 C74.1283,293.634 72.4123,293.62 70.7013,293.565 C69.9963,293.542 69.8743,293.786 69.8763,294.427 C69.8963,300.797 69.8733,307.167 69.8993,313.536 C69.9033,314.295 69.7763,314.604 68.9213,314.566 C67.2123,314.488 65.4953,314.504 63.7853,314.561 C63.0663,314.584 62.8813,314.393 62.8843,313.666 C62.9153,307.297 62.8853,300.927 62.9233,294.557 C62.9273,293.742 62.7073,293.535 61.9153,293.564 C60.2043,293.626 58.4893,293.625 56.7783,293.564 C56.0303,293.537 55.8953,293.783 55.8983,294.478 C55.9253,300.848 55.8913,307.218 55.9323,313.587 C55.9383,314.451 55.6423,314.58 54.8953,314.558 C53.2533,314.508 51.6053,314.49 49.9653,314.564 C49.1123,314.603 48.9043,314.373 48.9063,313.513 C48.9363,300.259 48.9273,287.006 48.9263,273.752 C48.9263,273.376 48.9063,273 48.8953,272.624 C48.9053,270.544 48.8983,268.462 48.9363,266.382 C48.9473,265.803 48.7633,265.616 48.1823,265.626 C46.1013,265.665 44.0203,265.659 41.9393,265.669 C41.5643,265.659 41.1893,265.639 40.8143,265.639 C27.2153,265.637 13.6153,265.637 0.0163,265.637 L0.0163,251.664 C6.6933,251.664 13.3703,251.651 20.0463,251.684 C20.8093,251.688 21.0283,251.512 20.9993,250.736 C20.9333,249.027 20.9303,247.311 21.0003,245.602 C21.0323,244.816 20.8013,244.656 20.0463,244.659 C13.3703,244.692 6.6933,244.678 0.0163,244.678 L0.0163,237.692 C6.6933,237.692 13.3703,237.677 20.0463,237.71 C20.8093,237.714 21.0283,237.539 20.9993,236.763 C20.9333,235.054 20.9303,233.338 21.0003,231.629 C21.0323,230.843 20.8013,230.683 20.0463,230.687 C13.3703,230.718 6.6933,230.705 0.0163,230.705 L0.0163,223.719 C6.6933,223.719 13.3703,223.704 20.0463,223.738 C20.8093,223.742 21.0283,223.567 20.9993,222.79 C20.9333,221.08 20.9303,219.366 21.0003,217.657 C21.0323,216.87 20.8013,216.71 20.0463,216.713 C13.3703,216.745 6.6933,216.732 0.0163,216.732 L0.0163,209.745 C6.6933,209.745 13.3703,209.732 20.0463,209.765 C20.8093,209.769 21.0283,209.593 20.9993,208.817 C20.9333,207.108 20.9303,205.393 21.0003,203.684 C21.0323,202.898 20.8013,202.738 20.0463,202.741 C13.3703,202.773 6.6933,202.759 0.0163,202.759 L0.0163,195.773 C20.6013,195.773 41.1863,195.78 61.7703,195.749988 Z M189.631,202.735517 C188.769,202.7316 188.651,203.0116 188.658,203.7606 C188.691,207.7326 188.697,211.7056 188.653,215.6776 C188.644,216.4936 188.789,216.7696 189.685,216.7576 C193.656,216.6996 197.63,216.7586 201.602,216.7116 C202.435,216.7016 202.675,216.8756 202.671,217.7526 C202.633,226.3826 202.635,235.0116 202.669,243.6406 C202.673,244.4876 202.481,244.7036 201.619,244.7006 C192.989,244.6636 184.359,244.6926 175.729,244.6556 C174.868,244.6516 174.674,244.8576 174.678,245.7086 C174.713,254.3726 174.692,263.0356 174.711,271.6996 C174.713,272.3436 174.663,272.6476 173.865,272.6446 C165.133,272.6116 156.399,272.6116 147.666,272.6436 C146.871,272.6466 146.725,272.4086 146.731,271.6696 C146.769,267.6636 146.73,263.6566 146.767,259.6496 C146.774,258.8846 146.627,258.6176 145.785,258.6286 C141.779,258.6786 137.771,258.6746 133.765,258.6316 C132.973,258.6226 132.752,258.8006 132.754941,259.6196 C132.787,268.2826 132.786,276.9466 132.757,285.6096 C132.754,286.4016 132.937,286.6176 133.752,286.616607 C151.731,286.5906 169.712,286.5916 187.691,286.6156 C188.494,286.616607 188.695,286.4186 188.692,285.6156 C188.662,276.9516 188.686,268.2886 188.653,259.6246 C188.649,258.8046 188.877,258.6306 189.663,258.6336 C198.327,258.6616 206.992,258.6376 215.657,258.6726 C216.489,258.6756 216.642,258.4286 216.64,257.6566 C216.613,248.6846 216.623,239.7136 216.623,230.7416 C216.623,221.7356 216.609,212.7296 216.644052,203.7236 C216.647,202.8856 216.391,202.7406 215.624,202.7426 C206.96,202.7686 198.295,202.7746 189.631,202.735517 Z M54.8913,202.736948 C46.2603,202.774 37.6313,202.773 29.0003,202.738 C28.1473,202.735 27.9433,202.935 27.9442862,203.791 C27.9723,221.735 27.9723,239.678 27.9442862,257.622 C27.9423,258.484 28.1563,258.675 29.0033,258.672 C37.6343,258.637 46.2643,258.666 54.8943,258.628 C55.7723,258.624 55.9383,258.865 55.9353,259.697 C55.9003,268.223 55.9113,276.75 55.9093,285.277 C55.9083385,286.546231 55.9064524,286.595047 57.1206777,286.596925 L83.7803,286.597 C92.7543,286.597 101.7263,286.586 110.6993,286.615059 C111.5343,286.618 111.8463,286.509 111.841359,285.541 C111.7953,276.912 111.8073,268.283 111.8353,259.654 C111.8383,258.893 111.7043,258.617 110.8573,258.628 C106.8503,258.679 102.8423,258.671 98.8363,258.633 C98.0663,258.626 97.8053,258.78 97.8163,259.617 C97.8663,263.622 97.8163,267.63 97.8573,271.636 C97.8663,272.427 97.6783,272.647 96.8633,272.644 C88.1983,272.612 79.5333,272.612 70.8693,272.644 C70.0603,272.647 69.8683,272.437 69.8703,271.64 C69.9003,262.976 69.8773,254.312 69.9103,245.649 C69.9133,244.826 69.6813,244.658 68.8993,244.66 C60.2693,244.689 51.6383,244.659 43.0093,244.704 C42.0683,244.709 41.9173,244.441 41.9203,243.577 C41.9533,234.982 41.9603,226.387 41.9133,217.791 C41.9073,216.833 42.2053,216.703 43.0503,216.712 C47.0223,216.756 50.9953,216.712 54.9683,216.749 C55.7043,216.756 55.9463,216.62 55.9363,215.819 C55.8883,211.813 55.8883,207.805 55.9363,203.799 C55.9463,202.959 55.7603,202.733 54.8913,202.736948 Z M62.9028,0.0169 L62.9032596,5.20233827 C62.9052576,24.0871256 62.91184,84.1699 62.8828,90.0439 C62.8788,90.8079 63.0558,91.0259 63.8308,90.9969 C65.5408,90.9309 67.2568,90.9259 68.9658,90.9989 C69.7558,91.0319 69.9108,90.7969 69.9068,90.0439 C69.8758,83.3689 69.8898,6.6929 69.8898,0.0169 L76.8768,0.0169 L76.8772994,5.20233827 C76.8794832,24.0871256 76.88684,84.1699 76.8578,90.0439 C76.8538,90.8079 77.0298,91.0259 77.8058,90.9969 C79.5158,90.9309 81.2318,90.9259 82.9398,90.9989 C83.7308,91.0319 83.8858,90.7969 83.8818,90.0439 C83.8508,83.3689 83.8638,6.6929 83.8638,0.0169 L90.8518,0.0169 L90.8522596,5.20233827 C90.8542576,24.0871256 90.86084,84.1699 90.8318,90.0439 C90.8278,90.8079 91.0048,91.0259 91.7798,90.9969 C93.4898,90.9309 95.2048,90.9259 96.9138,90.9989 C97.7048,91.0319 97.8608,90.7969 97.8568,90.0439 C97.8248,83.3689 97.8388,6.6929 97.8388,0.0169 L104.8258,0.0169 L104.826299,5.20233827 C104.828483,24.0871256 104.83584,84.1699 104.8068,90.0439 C104.8028,90.8079 104.9798,91.0259 105.7548,90.9969 C107.4648,90.9309 109.1798,90.9259 110.8888,90.9989 C111.6798,91.0319 111.8348,90.7969 111.8308,90.0439 C111.7998,83.3689 111.8138,6.6929 111.8138,0.0169 L118.8008,0.0169 L118.800333,15.8949769 C118.799181,49.3740911 118.797916,114.68084 118.822894,131.7639 C118.8248,132.7059 118.5818,132.9209 117.6598,132.9169 C109.0628,132.8789 100.4658,132.8789 91.8688,132.9179 C90.9858,132.9219 90.8208,132.6729 90.8308,131.8459 C90.8768,127.8739 90.8328,123.9009 90.8668,119.9279 C90.8738,119.1759 90.7488,118.8869 89.8938,118.8989 C85.8868,118.9519 81.8788,118.9419 77.8718,118.9049 C77.1018,118.8969 76.8518,119.0529 76.8558,119.8869 C76.8908,128.5509 76.8658,137.2159 76.8958,145.8799 C76.8978,146.6709 76.7158,146.8909 75.9008,146.8879 C67.2358,146.8559 58.5698,146.8799 49.9038,146.8479 C49.0938,146.8449 48.8998,147.0569 48.9078,147.8519 C48.9498,151.8929 48.9478,155.9339 48.9078,159.9749 C48.9018,160.7169 49.1198,160.8639 49.8198,160.8579 C53.8618,160.8229 57.9028,160.8569 61.9448,160.8259 C62.6628,160.8199 62.9278,160.9389 62.9238,161.7539 C62.8888,170.4189 62.8888,179.0829 62.9228,187.7479 C62.9268,188.5919 62.7378,188.807903 61.8748,188.807903 C41.2548,188.7809 20.6358,188.7869 0.0168,188.7869 L0.0168,174.8139 C6.7278,174.8139 13.4388,174.8029 20.1498,174.8309 C20.8208,174.8329 21.0128,174.6669 20.9938,173.9929 C20.9458,172.2489 20.9338,170.4989 20.9988,168.7559 C21.0278,167.9809 20.8118,167.8039 20.0468,167.8079 C13.3698,167.8409 6.6938,167.8279 0.0168,167.8279 L0.0168,160.8399 C6.7278,160.8409 13.4388,160.8309 20.1498,160.8579 C20.8208,160.8599 21.0128,160.6939 20.9938,160.0199 C20.9458,158.2759 20.9338,156.5269 20.9988,154.7839 C21.0278,154.0079 20.8118,153.8319 20.0468,153.8349 C13.3698,153.8689 6.6938,153.8539 0.0168,153.8539 L0.0168,146.8679 C6.7278,146.8679 13.4388,146.8569 20.1498,146.8839 C20.8208,146.8869 21.0128,146.7209 20.9938,146.0469 C20.9458,144.3019 20.9338,142.5539 20.9988,140.8099 C21.0278,140.0359 20.8118,139.8589 20.0468,139.8619 C13.3698,139.8959 6.6938,139.8809 0.0168,139.8809 L0.0168,132.8949 C6.7278,132.8949 13.4388,132.8839 20.1498,132.9119 C20.8218,132.9149 21.0128,132.7489 20.9938,132.0749 C20.9458,130.3299 20.9338,128.5819 20.9988,126.8369 C21.0278,126.0619 20.8118,125.8849 20.0468,125.8889 C13.3698,125.9219 6.6938,125.9089 0.0168,125.9089 L0.0168,118.9219 C11.1548,118.9219 22.2948,118.9239 33.4338,118.9199 C36.2688,118.9189 39.1048,118.9009 41.9398,118.8899 C44.0208,118.9009 46.1028,118.8939 48.1828,118.9329 C48.7638,118.9439 48.9488,118.7579 48.9388,118.1769 C48.8998,116.0969 48.9058,114.0159 48.8958,111.9349 C48.9058,111.5599 48.9258,111.1849 48.9258,110.8089 L48.9262929,105.538769 C48.9278,82.7314319 48.9278,12.39108 48.9278,0.0169 L62.9028,0.0169 Z M139.763,0.0169 L139.762375,45.030775 C139.7605,65.86865 139.7545,86.7064 139.737,90.0439 C139.733,90.8089 139.911,91.0259 140.686,90.9969 C142.395,90.9309 144.111,90.9309 145.82,90.9969 C146.597,91.0259 146.772,90.8089 146.769,90.0439 C146.735,83.3689 146.75,6.6929 146.75,0.0169 L153.737,0.0169 L153.737296,3.41811211 C153.739139,19.9265638 153.74803,83.96856 153.718,90.0419 C153.715,90.8019 153.884,91.0269 154.664,90.9969 C156.373,90.9299 158.088,90.9299 159.798,90.9969 C160.577,91.0269 160.747,90.8019 160.743,90.0419 C160.711,83.3679 160.725,6.6919 160.725,0.0169 L167.712,0.0169 L167.712295,3.41811211 C167.714131,19.9265638 167.72294,83.96856 167.692,90.0419 C167.688,90.8029 167.859,91.0259 168.639,90.9969 C170.382,90.9309 172.131,90.9429 173.875,90.9929 C174.556,91.0129 174.717,90.8069 174.714,90.1449 C174.689,83.4359 174.699,6.7259 174.699,0.0169 L181.686,0.0169 L181.686296,3.41835854 C181.688139,19.9275638 181.69703,83.96956 181.667,90.0429 C181.664,90.8019 181.83,91.0269 182.611,90.9979 C184.354,90.9299 186.103,90.9429 187.849,90.9929 C188.526,91.0119 188.691,90.8109 188.688,90.1459 C188.664,83.4369 188.674,6.7269 188.674,0.0169 L195.661,0.0169 L195.660328,3.32226284 C195.657665,19.5076719 195.65145,83.2267 195.656,88.9779 C195.663,96.6299 195.681,104.2829 195.693,111.9349 C195.683,114.0149 195.689,116.0969 195.651,118.1769 C195.641,118.7559 195.824,118.9439 196.406,118.9329 C198.486,118.8939 200.568,118.9009 202.649,118.8899 C205.799,118.9009 208.949,118.9189 212.1,118.9199 C222.579,118.9239 233.06,118.9339 243.54,118.9009 C244.396,118.8979 244.605,119.1019 244.594,119.9569 C244.542,123.9619 244.543,127.9689 244.588,131.9759 C244.597,132.7709 244.363,132.9169 243.62,132.9129 C237.284,132.8819 230.948,132.9079 224.612,132.8779 C223.853,132.8749 223.548,133.0039 223.587,133.8569 C223.665,135.5309 223.651,137.2129 223.592,138.8889 C223.563,139.6729 223.756,139.9079 224.581,139.9029 C230.917,139.8639 237.253,139.8969 243.589,139.8619 C244.391,139.8579 244.624,140.0539 244.592,140.8629 C244.524,142.5729 244.527,144.2879 244.585,145.9989 C244.61,146.7399 244.375,146.8869 243.673,146.8839 C237.303,146.8559 230.933,146.8789 224.562,146.8519 C223.839,146.8479 223.552,146.9589 223.587,147.7769 C223.662,149.4859 223.65,151.2019 223.592,152.9119 C223.566,153.6599 223.737,153.8799 224.528,153.8749 C230.864,153.8369 237.201,153.8729 243.536,153.8329 C244.388,153.8279 244.634,154.0229 244.594,154.8859 C244.517,156.5949 244.532,158.3109 244.584,160.0209 C244.604,160.7139 244.378,160.8569 243.726,160.8549 C237.355,160.8319 230.985,160.8529 224.615,160.8249 C223.862,160.8219 223.547,160.9419 223.587,161.7989 C223.666,163.4739 223.65,165.1559 223.592,166.8319 C223.564,167.6099 223.747,167.8539 224.579,167.8489 C230.914,167.8089 237.251,167.8419 243.587,167.8079 C244.382,167.8039 244.625,167.9919 244.592,168.8059 C244.522,170.5149 244.527,172.2309 244.585,173.9409 C244.61,174.6789 244.382,174.8329 243.676,174.8309 C237.34,174.8019 231.004,174.8289 224.668,174.7939 C223.857,174.7909 223.538,174.9159 223.586,175.8229 C223.672,177.4619 223.659,179.1109 223.59,180.7509 C223.554,181.5849 223.748,181.8299 224.629,181.8239 C230.931,181.7799 237.232,181.8179 243.534,181.7789 C244.38,181.7729 244.636,181.9599 244.595,182.8299 C244.516,184.5029 244.52,186.1859 244.587,187.8609 C244.618,188.6499 244.379,188.804101 243.626,188.804101 C234.036,188.7769 224.446,188.7869 214.857,188.7869 C204.172,188.7869 193.485,188.7779 182.8,188.804101 C181.967,188.804101 181.652,188.7009 181.658,187.7319 C181.708,179.1019 181.699,170.4729 181.676,161.8429 C181.674,161.0789 181.812,160.8069 182.657,160.8179 C186.698,160.8689 190.739,160.8219 194.78,160.8589 C195.5,160.8659 195.686,160.6859 195.679,159.9619 C195.643,155.8879 195.644,151.8129 195.686,147.7379 C195.692,147.0009 195.483,146.8489 194.777,146.8509 C186.112,146.8759 177.447,146.8499 168.783,146.8929 C167.851,146.8979 167.687,146.6409 167.69,145.7699 C167.726,137.1749 167.692,128.5799 167.738,119.9839 C167.744,119.0319 167.456,118.8919 166.604,118.9019 C162.667,118.9479 158.727,118.9469 154.789,118.9019 C153.968,118.8919 153.7,119.0459 153.713,119.9359 C153.769,123.9419 153.716,127.9499 153.756,131.9559 C153.764,132.7069 153.602,132.9179 152.815,132.9159 C144.15,132.8829 135.485,132.8809 126.821,132.9169 C125.967,132.9199 125.766996,132.7159 125.766996,131.8619 C125.794,111.2479 125.788,20.6319 125.788,0.0169 L139.763,0.0169 Z M187.83,97.9438942 C169.747,97.9679 151.664,97.9669 133.581,97.9459 C132.871,97.9449 132.761,98.1789 132.763,98.8109 C132.779,107.5429 132.779,116.2759 132.753953,125.0069 C132.752,125.6939 132.875,125.9349 133.628,125.9279 C137.702,125.8869 141.778,125.8789 145.853,125.9329 C146.691,125.943894 146.769,125.6439 146.765,124.943894 C146.734,120.9369 146.771,116.9299 146.73,112.9239 C146.723,112.1359 146.906,111.9129 147.725,111.9159 C156.389,111.9479 165.054,111.9479 173.719,111.9159 C174.524,111.9139 174.721,112.1189 174.718,112.9179 C174.687,121.5829 174.712,130.2469 174.679,138.9099 C174.675,139.7299 174.903,139.9019 175.687,139.8999 C184.352,139.8709 193.017,139.8889 201.682,139.8679 C202.379,139.8659 202.675,139.9359 202.672,140.7759 C202.634,149.5069 202.638,158.2399 202.667,166.9719 C202.67,167.7279 202.429,167.8489 201.745,167.8429 C197.738,167.8109 193.731,167.8519 189.725,167.8069 C188.9,167.7969 188.637,167.9549 188.649,168.8419 C188.705,172.8139 188.7,176.7879 188.652,180.7589 C188.642,181.5969 188.824,181.8269 189.695,181.823001 C198.326,181.7859 206.957,181.7869 215.587,181.8219 C216.436,181.8249 216.648,181.6279 216.644109,180.7699 C216.609,171.7979 216.623,162.8259 216.623,153.8539 C216.623,144.8819 216.609,135.9099 216.644109,126.9379 C216.648,126.0779 216.435,125.8839 215.586,125.8869 C206.956,125.9219 198.325,125.8939 189.694,125.9309 C188.818,125.9349 188.649,125.6969 188.653,124.8639 C188.688,116.1999 188.67,107.5369 188.693,98.8729 C188.695,98.2009 188.596,97.9429 187.83,97.9438942 Z M56.9448,97.940893 C56.0838,97.9399 55.8908,98.1509 55.8938,98.9989 C55.9288,107.6279 55.9008,116.2579 55.9378,124.8869 C55.9418,125.7619 55.7038,125.9319 54.8698,125.9289 C46.2398,125.8959 37.6098,125.9239 28.9798,125.8849 C28.0938,125.8809 27.9438,126.1349 27.9458,126.9579 C27.9778,135.8949 27.9658,144.8319 27.9658,153.7699 C27.9658,162.7759 27.9808,171.7819 27.942711,180.7879 C27.9388,181.6789 28.2008,181.8229 29.0198,181.819989 C37.6838,181.7889 46.3488,181.7909 55.0128,181.8169 C55.6998,181.8189 55.9418,181.7039 55.9348,180.9499 C55.8938,176.8739 55.8858,172.7989 55.9388,168.7249 C55.9488,167.8899 55.6548,167.8069 54.9508,167.8119 C50.9448,167.8429 46.9378,167.8049 42.9308,167.8459 C42.1468,167.8539 41.9158,167.6759 41.9198,166.8549 C41.9528,158.1909 41.9518,149.5279 41.9208,140.8639 C41.9178,140.0629 42.1158,139.8589 42.9208,139.8619 C51.5518,139.8929 60.1818,139.8639 68.8118,139.9079 C69.7358,139.9119 69.9148,139.6779 69.9108,138.7949 C69.8748,130.1319 69.8948,121.4679 69.8788,112.8049 C69.8778,112.2069 69.9268,111.9139 70.6758,111.9159 C79.4428,111.9469 88.2098,111.9459 96.9778,111.9179 C97.7228,111.9159 97.8608,112.1519 97.8548,112.8419 C97.8208,116.8829 97.8588,120.9239 97.8198,124.9639 C97.8138,125.7069 97.9588,125.9399 98.7558,125.9299 C102.7618,125.8829 106.7698,125.8799 110.7758,125.9309 C111.6258,125.9419 111.8388,125.7479 111.834908,124.8849 C111.7988,116.2549 111.7998,107.6259 111.834908,98.9979 C111.8378,98.1449 111.6378,97.9399 110.7808,97.9419 C92.8358,97.9689 74.8898,97.9699 56.9448,97.940893 Z" id="Combined-Shape" fill="#ADB481"></path>
            <path d="M41.9406,0.0169 L41.9544106,111.92032 L45.411,111.928 C46.5725,111.93025 47.734,111.9325 48.8955,111.935 C48.9065,114.016 48.8995,116.097 48.9385,118.177 C48.9495,118.758 48.7635,118.944 48.1825,118.933 C46.1025,118.894 44.0205,118.901 41.9395,118.89 C41.9345208,116.576665 41.9305333,114.263331 41.9265499,111.949996 L0.0166,111.9359 L0.0166,111.9359 L0.0166,104.9499 C9.0006,104.9499 17.9856,104.9399 26.9696,104.9649 C27.7256,104.9669 28.0186,104.8399 27.9896,103.9939 C27.9344,102.3835 27.95792,100.77054 27.972096,99.158092 L27.9794106,97.9763203 L29.1614,97.9693 C30.77356,97.9549 32.387,97.9309 33.9966,97.9869 C34.8446,98.0149 34.9706,97.7219 34.9686,96.9659 C34.9446,87.9839 34.9536,8.9999 34.9536,0.0169 L41.9406,0.0169 Z M27.9655,0.0169 C27.96085,8.6845 27.9570649,77.8951 27.9533403,95.03872 L27.9524106,97.9483203 L13.998,97.955775 C9.3375,97.9579 4.677,97.9599 0.0165,97.9619 L0.0165,90.9759 C4.4165,90.9759 8.8145,90.9629 13.2135,90.9909 C13.8305,90.9949 14.0225,90.8649 14.0085,90.2149 C13.987,89.1754 13.98475,88.13565 13.9885,87.095775 L14.0044106,84.0023203 L15.512125,83.9948375 C17.0468125,83.983775 18.5815,83.9699 20.1145,84.0089 C20.8475,84.0279 21.0015,83.8139 20.9965,83.1099 C20.9605,78.7459 20.9785,4.3809 20.9785,0.0169 L27.9655,0.0169 Z M0.6816,0.000409149041 C5.1186,0.0306 9.5546,0.0166 13.9916,0.0166 C13.9869,4.39888 13.9822,70.6340436 13.9783306,82.4386696 L13.9774106,83.9753203 L0.0166,83.9896 L0.0166,83.9896 L0.0173455478,77.7409 C0.0197853184,58.7978 0.0259354558,4.4522 -0.000496961367,0.6816 C-0.0044,0.1136 0.1136,-0.0034 0.6816,0.000409149041 Z" id="Combined-Shape" fill="#C0683A"></path>
            <path d="M48.1828,265.626 C48.7638,265.616 48.9478,265.803 48.9368,266.382 C48.8988,268.462 48.9058,270.544 48.8958,272.624 C46.5821347,272.62898 44.2674774,272.632968 41.9547921,272.63794 L41.9551,272.6097 C41.9501,286.2257 41.9351,299.8417 41.9631158,313.4587 C41.9651,314.3477 41.7781,314.6157 40.8631,314.5667 C39.2261,314.4797 37.5781,314.4987 35.9381,314.5607 C35.1491,314.5907 34.9301,314.3887 34.9331,313.5727 C34.9661,304.9517 34.9341,296.3297 34.9781,287.7087 C34.9841,286.7357 34.6931,286.5477 33.8021,286.5757 C32.2429,286.6253 30.68242,286.60258 29.122196,286.588948 L27.9781,286.581622 L27.972076,285.401124 C27.95838,283.78842 27.9347,282.1761 27.9891,280.5657 C28.0181,279.7187 27.7261,279.5917 26.9701,279.5937 C17.9851,279.6197 9.0011,279.6097 0.0171,279.6097 L0.0171,272.6237 L41.9261,272.609622 L41.932925,269.1535 C41.93505,267.992 41.9373,266.8305 41.9398,265.669 C44.0208,265.659 46.1018,265.665 48.1828,265.626 Z M0.0161,286.5974 L13.997975,286.603525 L13.997975,286.603525 L27.9511,286.609622 L27.9558045,295.6434 C27.9583246,301.684733 27.9627738,307.726067 27.9801213,313.7674 C27.9821,314.3924 27.8441,314.5774 27.1981,314.5604 C25.4211,314.5104 23.6401,314.5074 21.8641,314.5604 C21.1601,314.5814 20.9521,314.4164 20.9591,313.6794 C21.0001,309.6444 20.9461,305.6084 21.0041,301.5744 C21.0161,300.6794 20.7421,300.5254 19.9271,300.5494 C18.3415,300.595 16.75462,300.57468 15.167484,300.562168 L14.0041,300.554622 L13.9966156,299.048916 C13.9854125,297.514463 13.9721,295.98015 14.0111,294.4464 C14.0291,293.7144 13.8151,293.5604 13.1111,293.5654 C8.7461,293.6004 4.3821,293.5834 0.0161,293.5834 L0.0161,286.5974 Z M0.0165,300.57 L7.0105,300.5765 L7.0105,300.5765 L13.9771,300.582622 L13.9783125,303.857391 C13.9775625,307.159875 13.97625,310.4625 14.0115,313.764 C14.0195,314.518 13.7165,314.555 13.1255,314.553068 C8.7555,314.534 4.3865,314.542 0.0165,314.542 L0.0165,300.57 Z" id="Combined-Shape" fill="#C0683A"></path>
            <path d="M209.6354,0.0166 L209.635915,9.1314073 C209.63741,32.48316 209.6404,89.42088 209.6194,96.9666 C209.6174,97.7216 209.7444,98.0146 210.5904,97.9866 C212.2016,97.9314 213.81472,97.95492 215.4272,97.969096 L216.606939,97.9766 L216.614456,99.139192 C216.62764,100.72684 216.6494,102.315 216.6014,103.9006 C216.5774,104.7216 216.7434,104.9766 217.6314,104.9726 C226.2884,104.9326 234.9454,104.9616 243.6014,104.9276 C244.4184,104.9256 244.6204,105.1446 244.5904,105.9336 C244.5284,107.6076 244.5234,109.2886 244.5924,110.9616 C244.6264,111.7746 244.3824,111.9566 243.5904,111.954723 C232.1974,111.9276 220.8024,111.9346 209.4094,111.9356 C207.159737,111.936596 204.911067,111.945526 202.6624,111.950538 L202.6624,111.9209 C202.6574,114.2449 202.6534,116.5669 202.6494,118.8899 C200.5684,118.9009 198.4864,118.8939 196.4064,118.9329 C195.8244,118.9439 195.6404,118.7559 195.6514,118.1769 C195.6894,116.0969 195.6824,114.0149 195.6934,111.9349 C198.006072,111.92992 200.320728,111.925932 202.634404,111.92096 L202.634885,109.9462 C202.6388,91.36636 202.6436,13.43548 202.6484,0.0166 L209.6354,0.0166 Z M223.61,0.0169 L223.610867,7.64113687 C223.613264,27.6875311 223.61841,79.56156 223.596,83.2119 C223.592,83.8289 223.722,84.0209 224.371,84.0069 C225.93025,83.97465 227.490625,83.986275 229.050859,83.9957906 L230.581939,84.0026 L230.588968,85.165892 C230.60196,86.75274 230.6234,88.3401 230.577,89.9249 C230.553,90.7399 230.706,91.0139 231.603,91.0009 C235.638,90.9439 239.674,90.9969 243.709,90.9569 C244.446,90.9499 244.61,91.1579 244.59,91.8619 C244.536,93.6379 244.539,95.4179 244.589,97.1959 C244.606,97.8409 244.421,97.9779415 243.796,97.9779415 C237.754,97.9605805 231.712444,97.9556824 225.670444,97.9528645 L216.636939,97.9486 L216.63685,97.67644 C216.6319,87.0775 216.62696,9.2437 216.623,0.0169 L223.61,0.0169 Z M244.5723,0.0169 L244.571975,4.37182 C244.570543,21.22646 244.56558,79.27918 244.5823,83.1239 C244.5853,83.7149 244.5473,84.0189 243.7943,84.0099 C240.4913,83.97465 237.1883,83.9759625 233.8853,83.9767125 L230.610939,83.9756 L230.611,83.6403 C230.6061,76.38242 230.60122,4.58566 230.5973,0.0169 L244.5723,0.0169 Z" id="Combined-Shape" fill="#C0683A"></path>
            <path d="M243.5575,272.601187 C244.4365,272.5992 244.6275,272.8352 244.5925,273.6672 C244.5225,275.3402 244.5225,277.0212 244.5935,278.6942 C244.6275,279.4882 244.3785,279.6302 243.6345,279.6282 C234.9775,279.6002 226.3215,279.6222 217.6645,279.5902 C216.8335,279.5862 216.5625,279.7442 216.5985,280.6262 C216.6641,282.2118 216.64714,283.79996 216.640292,285.387608 L216.637944,286.548944 L215.127516,286.565809 C213.588562,286.585075 212.04975,286.60645 210.5115,286.5772 C209.7925,286.5642 209.6155,286.7462 209.6175,287.4692 C209.6455,296.0572 209.6355,304.6442 209.6355,313.2322 C209.6355,314.5422 209.6355,314.5422 208.2735,314.5422 C206.6995,314.5422 205.1235,314.4862 203.5525,314.5652 C202.7345,314.6062 202.6305,314.3162 202.6315,313.5942 C202.6545,300.2172 202.6485,286.8402 202.6475,273.4632 L202.641375,273.053075 L202.641375,273.053075 L202.631944,272.668944 L202.911204,272.652163 C203.1155,272.638533 203.3195,272.6252 203.5235,272.6252 C216.8685,272.6232 230.2125,272.6342 243.5575,272.601187 Z M243.5534,286.5741 C244.4264,286.5711 244.6284,286.7991 244.5924,287.6371 C244.5224,289.3461 244.5344,291.0621 244.5894,292.7721 C244.6124,293.4701 244.3814,293.6021 243.7354,293.5971 C239.6604,293.5691 235.5854,293.6091 231.5104,293.5611 C230.7144,293.5521 230.5604,293.7811 230.5784,294.5231 C230.6159,296.0366 230.602213,297.55235 230.590916,299.067397 L230.581944,300.553944 L229.095586,300.562491 C227.580963,300.5736 226.0669,300.5871 224.5534,300.5511 C223.8214,300.5341 223.5774,300.6731 223.5874,301.4781 C223.6364,305.5151 223.5924,309.5521 223.6264,313.5891 C223.6314,314.3021 223.5374,314.6011 222.7104,314.5661 C220.8994,314.4901 219.0844,314.5311 217.2704,314.5511 C216.8194,314.5561 216.6094,314.4921 216.610396,313.9541 C216.631065,307.864767 216.641955,301.775433 216.651363,295.6855 L216.664944,286.577944 L225.610807,286.586619 C231.592067,286.592322 237.572733,286.594767 243.5534,286.5741 Z M243.816,300.552275 C244.482,300.5464 244.589,300.7554 244.586,301.3574 C244.56,305.4954 244.557,309.6334 244.588115,313.7704 C244.593,314.4044 244.436,314.5624 243.801,314.558473 C239.662,314.5274 235.523,314.5294 231.386,314.5564 C230.784,314.5604 230.574,314.4534 230.578913,313.7874 C230.604971,310.8474 230.607879,307.906511 230.608404,304.965622 L230.609944,300.581944 L234.993259,300.581284 C237.934222,300.580831 240.875333,300.577692 243.816,300.552275 Z M196.4054,265.6264 C198.4864,265.6654 200.5674,265.6584 202.6494,265.6694 L202.627775,269.169903 L202.627775,269.169903 L202.604944,272.641944 L195.6934,272.6244 L195.6934,272.6244 C195.6824,270.5434 195.6884,268.4624 195.6504,266.3824 C195.6394,265.8014 195.8254,265.6154 196.4054,265.6264 Z" id="Combined-Shape" fill="#C0683A"></path>
            <path d="M139.4856,160.5257 L139.4856,167.5467 L146.4896,167.5467 L146.4896,174.5567 L153.4996,174.5567 L153.4996,181.5317 L160.4516,181.5317 L160.4516,188.4887 L146.4276,188.4887 L146.4276,181.4597 L139.4526,181.4597 L139.4526,174.5617 L104.4966,174.5617 L104.4966,181.5467 L97.4846,181.5467 L97.4846,188.5227 L83.5446,188.5227 L83.5446,195.4837 L90.54,195.484 L90.5396,202.4777 L97.534,202.478 L97.5336,209.4717 L104.528,209.472 L104.5276,216.4667 L139.4716,216.4667 L139.472,209.472 L146.4656,209.4717 L146.466,202.478 L153.4596,202.4777 L153.46,195.484 L160.4546,195.4837 L160.4694,192.0004 L160.4694,192.0004 L160.4836,188.5177 L163.9569,188.5109 C165.12565,188.5084 166.2944,188.5059 167.4629,188.5034 L167.4629,195.4974 L160.4816,195.5117 L160.482,202.505 L153.4876,202.5047 L153.488,209.5 L146.4936,209.4997 L146.494,216.494 L139.5006,216.4937 L139.485,223.4751 L139.485,223.4751 L104.515,223.4751 L104.4986,216.4937 L97.506,216.494 L97.5056,209.4997 L90.512,209.5 L90.5116,202.5047 L83.518,202.505 L83.5176,195.5117 L76.5366,195.4977 L76.5366,181.5087 L83.5826,181.5087 L83.5826,174.4557 L97.5656,174.4557 L97.5656,167.4997 L104.5146,167.4997 L104.5146,160.5257 L139.4856,160.5257 Z M132.413,181.597 L132.413,202.444 L111.569,202.444 L111.569,181.597 L132.413,181.597 Z" id="eye" fill="#C0683A"></path>
        </g>
    </g>
</svg>