<svg id="Layer_1" data-name="Layer 1" xmlns="http://www.w3.org/2000/svg" viewBox="0 0 90.93 62.95">
  <g id="OD9mzS.tif">
    <path d="M28,0H63V7h7v7h7v7h7v7l0,0H69.89v-7h-7V14H28v7H21v7H7v7L0,35V21H7.05v-7H21V7h7Z"/><path d="M63,55.94v7H28l0-7Z"/><path d="M90.93,35l-7,0,0-7,0,0h7Z"/><path d="M7,35h7v7H7Z"/><path d="M14,42h7v7H14Z"/><path d="M21,49h7v7H21Z"/><path d="M76.92,42V35h7v7Z"/><path d="M69.93,49V42h7v7Z"/><path d="M62.93,56V49h7v7Z"/><path d="M55.88,41.92H35V21.07H55.88Z"/>
</g>
</svg>