<?xml version="1.0" encoding="UTF-8"?>
<svg width="796px" height="747px" viewBox="0 0 796 747" version="1.1" xmlns="http://www.w3.org/2000/svg" xmlns:xlink="http://www.w3.org/1999/xlink">
    <!-- Generator: Sketch 63.1 (92452) - https://sketch.com -->
    <title>pixels copy 4</title>
    <desc>Created with Sketch.</desc>
    <g id="pixels-copy-4" stroke="none" stroke-width="1" fill="none" fill-rule="evenodd">
        <polygon id="Fill-3" fill="#8086AE" points="554.830315 483.309243 561.075708 483.309243 561.075708 477.06385 554.830315 477.06385"></polygon>
        <polygon id="Fill-23" fill="#C0683A" points="539.060698 499.297449 545.306091 499.297449 545.306091 493.052056 539.060698 493.052056"></polygon>
        <polygon id="Fill-26-Copy" fill="#155C4D" points="673 61.8198052 679.245393 61.8198052 679.245393 55.5744123 673 55.5744123"></polygon>
        <g id="Group-12" transform="translate(91.000000, 666.000000)" fill="#155C4D">
            <path d="M3.43228589,15.4925048 C3.43228589,16.40973 3.42236762,17.3334236 3.4396168,18.2562547 C3.44392909,18.4904124 3.36285794,18.5106801 3.16707975,18.508524 C2.25373565,18.4986057 1.33996032,18.5037805 0.423166384,18.5037805 L0.423166384,18.5037805 L0.423166384,15.4925048 Z M6.53718148,0.523795479 L6.53718148,9.48991942 L9.52042722,9.48991942 L9.52042722,12.4813585 L18.5227744,12.4813585 L18.5227744,15.4801285 L3.53021812,15.4801285 L3.53021812,0.523795479 L6.53718148,0.523795479 Z M12.5331691,0.522243052 L12.5331691,3.49557051 L15.5172773,3.49557051 L15.5172773,6.48485347 L18.5225157,6.48485347 L18.5225157,9.48319224 C15.5267643,9.48103609 12.5301505,9.47844871 9.53396783,9.47629257 L9.53396783,9.47629257 L9.53396783,0.522243052 L12.5331691,0.522243052 Z M18.5226019,0.487917183 L18.5226019,3.48625596 C17.5251681,3.48366858 16.5281655,3.48151243 15.5311628,3.47935628 L15.5311628,3.47935628 L15.5311628,0.487917183 L18.5226019,0.487917183 Z" id="Combined-Shape"></path>
        </g>
        <g id="comb" transform="translate(751.000000, 262.000000)" fill="#8086AE">
            <polygon id="Fill-1" points="28.0902677 -0.000928856231 28.0902677 4.55665404 25.7828777 4.55665404 25.7828777 -0.000928856231 23.4758183 -0.000928856231 23.4758183 4.55665404 21.1684283 4.55665404 21.1684283 -0.000928856231 18.8613689 -0.000928856231 18.8613689 4.55665404 16.5539789 4.55665404 16.5539789 -0.000928856231 14.246589 -0.000928856231 14.246589 4.55665404 11.9395296 4.55665404 11.9395296 -0.000928856231 9.63247021 -0.000928856231 9.63247021 4.55665404 7.32508022 4.55665404 7.32508022 -0.000928856231 5.01802085 -0.000928856231 5.01802085 4.55665404 2.71063086 4.55665404 2.71063086 -0.000928856231 0.403571489 -0.000928856231 0.403571489 6.86900331 30.397327 6.86900331 30.397327 -0.000928856231"></polygon>
        </g>
        <g id="Group" transform="translate(243.000000, 35.819805)"></g>
    </g>
</svg>