<?xml version="1.0" encoding="UTF-8"?>
<svg width="796px" height="747px" viewBox="0 0 796 747" version="1.1" xmlns="http://www.w3.org/2000/svg" xmlns:xlink="http://www.w3.org/1999/xlink">
    <!-- Generator: Sketch 63.1 (92452) - https://sketch.com -->
    <title>pixels copy 2</title>
    <desc>Created with Sketch.</desc>
    <g id="pixels-copy-2" stroke="none" stroke-width="1" fill="none" fill-rule="evenodd">
        <polygon id="Fill-3-Copy" fill="#FFFFFF" points="725.186365 303.166716 731.366072 303.166716 731.366072 296.987009 725.186365 296.987009"></polygon>
        <polygon id="Fill-3-Copy-2" fill="#FFFFFF" points="712.82695 280.919769 719.006657 280.919769 719.006657 274.740061 712.82695 274.740061"></polygon>
        <polygon id="Fill-26-Copy" fill="#FFFFFF" points="107 36.1797075 113.179708 36.1797075 113.179708 30 107 30"></polygon>
        <g id="comb" transform="translate(75.063038, 105.476086) rotate(180.000000) translate(-75.063038, -105.476086) translate(60.000000, 102.000000)" fill="#FFFFFF">
            <polygon id="Fill-1" points="27.3955038 0 27.3955038 4.50964892 25.1123816 4.50964892 25.1123816 0 22.8295865 0 22.8295865 4.50964892 20.5464643 4.50964892 20.5464643 0 18.2636692 0 18.2636692 4.50964892 15.980547 4.50964892 15.980547 0 13.6974248 0 13.6974248 4.50964892 11.4146297 4.50964892 11.4146297 0 9.13183461 0 9.13183461 4.50964892 6.84871238 4.50964892 6.84871238 0 4.5659173 0 4.5659173 4.50964892 2.28279508 4.50964892 2.28279508 0 9.05632726e-14 0 9.05632726e-14 6.79767827 29.6782989 6.79767827 29.6782989 0"></polygon>
        </g>
        <path d="M357.714062,724.49611 C357.958443,724.494945 358.050529,724.543644 358.048808,724.813261 C358.036805,726.658077 358.038133,747.814479 358.047873,749.659295 C358.049201,749.908989 357.990319,749.991778 357.727343,749.990007 C355.882085,749.978496 354.03727,749.974954 352.192454,749.992702 C351.910688,749.995028 351.872384,749.889296 351.867973,749.696 L351.868066,749.414277 C351.870614,748.255918 351.871743,744.339234 351.872208,739.935787 L351.872207,724.510532 L354.788124,724.5071 C355.763436,724.505308 356.738749,724.50239 357.714062,724.49611 Z M342.908743,715.237576 C344.867337,715.250414 346.826817,715.244659 348.785855,715.244659 C348.940807,715.418648 348.930182,715.634253 348.930624,715.844545 C348.933723,717.501204 348.933723,719.157864 348.930182,720.814966 C348.929747,721.020185 348.941695,721.232236 348.809611,721.411701 L351.857207,721.410532 L351.807472,721.344572 C351.71035,721.186114 351.727535,720.999359 351.727155,720.821385 C351.722728,719.162955 351.723171,717.504082 351.726713,715.844766 C351.727155,715.634917 351.716087,715.41887 351.871482,715.244438 L358.04256,715.244438 C358.04256,717.17337 358.034149,719.102745 358.051013,721.031235 C358.053186,721.353092 357.966412,721.425698 357.652966,721.423533 C355.727701,721.409787 353.802435,721.419463 351.877169,721.421261 L351.869479,722.961008 L351.869479,722.961008 L351.861207,724.500532 L350.326599,724.503501 C349.814994,724.504435 349.303335,724.505424 348.791675,724.506521 L348.791217,724.835089 C348.788936,728.161633 348.78054,747.746009 348.793739,749.594569 C348.795904,749.907572 348.723298,749.995231 348.401441,749.99221 C346.472508,749.975751 344.543576,749.98372 342.614644,749.98372 L342.614644,724.501498 C342.789076,724.346103 343.005123,724.357171 343.214973,724.356728 C344.873845,724.353186 346.532718,724.352744 348.191591,724.357171 L348.371041,724.356696 C348.516419,724.359316 348.659422,724.378959 348.780822,724.486469 L348.780207,721.435532 L348.717703,721.479329 C348.544175,721.575243 348.345601,721.559684 348.153207,721.560064 C346.522669,721.564491 344.89213,721.564048 343.261148,721.560507 C343.036689,721.560064 342.803818,721.581757 342.614777,721.415737 C342.614777,719.4567 342.620532,717.49722 342.60725,715.538625 C342.60548,715.287603 342.65772,715.235805 342.908743,715.237576 Z" id="Combined-Shape" fill="#FFFFFF"></path>
        <polygon id="Fill-23" fill="#FFFFFF" points="220 600.179708 226.179708 600.179708 226.179708 594 220 594"></polygon>
    </g>
</svg>