<?xml version="1.0" encoding="UTF-8"?>
<svg width="1440px" height="590px" viewBox="0 0 1440 590" version="1.1" xmlns="http://www.w3.org/2000/svg" xmlns:xlink="http://www.w3.org/1999/xlink">
    <!-- Generator: Sketch 63.1 (92452) - https://sketch.com -->
    <title>pixels copy 2</title>
    <desc>Created with Sketch.</desc>
    <g id="pixels-copy-2" stroke="none" stroke-width="1" fill="none" fill-rule="evenodd">
        <polygon id="Fill-3" fill="#FFFFFF" points="1425.2 236 1430.2 236 1430.2 231 1425.2 231"></polygon>
        <polygon id="Fill-3-Copy" fill="#FFFFFF" points="582.3 362.5 587.3 362.5 587.3 357.5 582.3 357.5"></polygon>
        <polygon id="Fill-3-Copy-2" fill="#FFFFFF" points="319.142033 242.824963 324.142033 242.824963 324.142033 237.824963 319.142033 237.824963"></polygon>
        <polygon id="Fill-23" fill="#FFFFFF" points="1405 256.479999 1410 256.479999 1410 251.479999 1405 251.479999"></polygon>
        <polygon id="Fill-26-Copy" fill="#FFFFFF" points="99 126 104 126 104 121 99 121"></polygon>
        <polygon id="Fill-3-Copy-5" fill="#FFFFFF" points="1425.2 236 1430.2 236 1430.2 231 1425.2 231"></polygon>
        <polygon id="Fill-3-Copy-4" fill="#FFFFFF" points="582.3 362.5 587.3 362.5 587.3 357.5 582.3 357.5"></polygon>
        <polygon id="Fill-3-Copy-3" fill="#FFFFFF" points="319.142033 242.824963 324.142033 242.824963 324.142033 237.824963 319.142033 237.824963"></polygon>
        <polygon id="Fill-26-Copy-2" fill="#FFFFFF" points="99 126 104 126 104 121 99 121"></polygon>
        <path d="M1170.39657,455.845034 C1170.39657,457.019948 1170.38386,458.203148 1170.40596,459.385243 C1170.41148,459.685186 1170.30763,459.711148 1170.05685,459.708386 C1168.88691,459.695681 1167.71641,459.702309 1166.54205,459.702309 L1166.54205,459.702309 L1166.54205,455.845034 Z M1174.37376,436.670953 L1174.37376,448.156057 L1178.19514,448.156057 L1178.19514,451.987923 L1189.72664,451.987923 L1189.72664,455.82918 L1170.52201,455.82918 L1170.52201,436.670953 L1174.37376,436.670953 Z M1182.05429,436.668964 L1182.05429,440.477631 L1185.87677,440.477631 L1185.87677,444.306735 L1189.72631,444.306735 L1189.72631,448.14744 C1185.88892,448.144678 1182.05042,448.141364 1178.21248,448.138602 L1178.21248,448.138602 L1178.21248,436.668964 L1182.05429,436.668964 Z M1189.72642,436.624995 L1189.72642,440.465699 C1188.44876,440.462385 1187.17166,440.459623 1185.89455,440.456861 L1185.89455,440.456861 L1185.89455,436.624995 L1189.72642,436.624995 Z" id="Combined-Shape" fill="#FFFFFF"></path>
        <polygon id="Fill-1" fill="#FFFFFF" points="121.465112 476 121.465112 481.838009 118.509474 481.838009 118.509474 476 115.55426 476 115.55426 481.838009 112.598622 481.838009 112.598622 476 109.643408 476 109.643408 481.838009 106.68777 481.838009 106.68777 476 103.732132 476 103.732132 481.838009 100.776918 481.838009 100.776918 476 97.8217039 476 97.8217039 481.838009 94.8660662 481.838009 94.8660662 476 91.910852 476 91.910852 481.838009 88.9552142 481.838009 88.9552142 476 86 476 86 484.799999 124.420326 484.799999 124.420326 476"></polygon>
        <path d="M1004.55678,477.989642 C1004.87314,477.987956 1004.99235,478.051 1004.99009,478.400035 C1004.97459,480.788259 1004.97631,483.176482 1004.98891,485.564706 C1004.99063,485.88795 1004.91441,485.995125 1004.57397,485.992832 C1002.18517,485.977931 999.79695,485.973346 997.408726,485.996321 C996.998367,485.99971 996.986904,485.826052 996.98805,485.513124 L996.994427,481.754552 L996.994427,481.754552 L996.994,478.00863 L1000.76897,478.003713 C1002.03157,478.001416 1003.29418,477.997683 1004.55678,477.989642 Z M985.390409,466.003684 C987.925926,466.02036 990.462589,466.01291 992.99868,466.01291 C993.199275,466.238149 993.18552,466.517262 993.186093,466.789498 C993.190105,468.934142 993.190105,471.078786 993.18552,473.224004 C993.184958,473.489267 993.200377,473.763348 993.030214,473.99545 L996.975,473.99463 L996.918396,473.922383 C996.783677,473.714556 996.80687,473.467511 996.806369,473.232314 C996.800638,471.085377 996.801211,468.937867 996.805796,466.789785 C996.806369,466.518122 996.792041,466.238436 996.993209,466.012623 L1004.98204,466.012623 C1004.98204,468.509741 1004.97115,471.007432 1004.99298,473.503976 C1004.99579,473.92064 1004.88346,474.014633 1004.47768,474.011831 C1001.9849,473.994032 999.492116,474.006566 996.999332,474.00889 L996.990615,476.002183 L996.990615,476.002183 L996.98,477.99463 L994.993265,477.999032 C994.33088,478.000241 993.668425,478.001521 993.00597,478.002942 L993.005959,477.989561 C993.003666,480.486679 992.991057,482.983797 993.008887,485.480914 C993.01169,485.886116 992.917697,485.999595 992.501033,485.995583 C990.003915,485.974377 987.506798,485.984694 985.00968,485.984694 L985.00968,477.996439 C985.235492,477.795271 985.515178,477.809599 985.786841,477.809026 C987.934351,477.804441 990.081861,477.803868 992.22937,477.809599 C992.492698,477.810722 992.770326,477.780493 992.992205,477.977019 L992.991,474.02763 L992.910453,474.084061 C992.685811,474.208228 992.428745,474.188086 992.17968,474.188578 C990.068851,474.194309 987.958021,474.193736 985.846618,474.189151 C985.556042,474.188578 985.254577,474.216661 985.009852,474.001738 C985.009852,471.465648 985.017302,468.928984 985.000053,466.393467 C984.997816,466.068503 985.065445,466.001447 985.390409,466.003684 Z" id="Combined-Shape" fill="#FFFFFF"></path>
        <polygon id="Fill-23-Copy" fill="#FFFFFF" points="1403 39 1408 39 1408 34 1403 34"></polygon>
    </g>
</svg>