<svg id="Layer_1" data-name="Layer 1" xmlns="http://www.w3.org/2000/svg" xmlns:xlink="http://www.w3.org/1999/xlink" viewBox="0 0 578.34 443.09"><defs><style>.cls-1{fill:none;}.cls-2{clip-path:url(#clip-path);}.cls-3{fill:#fff;}</style><clipPath id="clip-path"><path class="cls-1" d="M228.82,6v6.4h-6.4V6Zm0,36.78v6.4h-6.4v-6.4Zm-10.7,11.46v6.39h-6.4V54.22ZM26.89,81.45v6.4h-6.4v-6.4Zm238.32,1.6v6.4h-6.4v-6.4Zm-21.8,17.77h-9.3v13.47h9.3a7.85,7.85,0,0,0,5.39-1.65,5.88,5.88,0,0,0,1.84-4.64v-.88a6.07,6.07,0,0,0-1.84-4.43A7.28,7.28,0,0,0,243.41,100.82ZM66.46,91.6v42H88.64v-42h19l6,46.4H115V114.72h5.31v-6.4H115V91.6h9.7v34.62h4.6v6.39h-4.6v10.21h-19l-6-46.4H98.34v46.4h-54v-9.22H56.74V100.82H0V91.6H25.89v5.92h6.4V91.6Zm73.75,0,1.9,8.73h-2.66v6.39h4.05L150.3,138h1.33l10.09-46.4h10L160.1,142.83H141.83L130.19,91.6Zm103.94,0a20.59,20.59,0,0,1,7,1.1l.26.1v5.93h6.4V97.57a13.93,13.93,0,0,1,1.49,2.67,14.18,14.18,0,0,1,1.07,5.49v1.75a11,11,0,0,1-1.7,5.9,10.64,10.64,0,0,1-5.24,4.2v1.32a6.26,6.26,0,0,1,4.1,2,6.08,6.08,0,0,1,1.51,4.24v17.71h-9.74V127.46a4.25,4.25,0,0,0-.92-2.85,3.8,3.8,0,0,0-3.06-1.1H234.11v19.32h-9.74V91.6ZM347,91.6v9.22H324.13v11.71h22v9.23h-22v11.85h52.59v9.22H314.4V91.6Zm-133.7,0v51.23H197V138.7h-6.4v4.13H180.05v-9.22h23.58V121.76H181.81v-9.23h21.82V100.82h-22.7V91.6Zm72-1.38a22.73,22.73,0,0,1,8,1.3A17,17,0,0,1,299.07,95a14.61,14.61,0,0,1,3.56,5.12,15.7,15.7,0,0,1,1.2,6.08v2.67h-9.59v-1.78a7.27,7.27,0,0,0-2.36-5.41,9.07,9.07,0,0,0-6.64-2.3,9.6,9.6,0,0,0-5.74,1.52,4.81,4.81,0,0,0-2.1,4.11,5.68,5.68,0,0,0,.5,2.41,5,5,0,0,0,1.78,1.93,13.25,13.25,0,0,0,3.34,1.52,41.68,41.68,0,0,0,5.27,1.26q8,1.48,12.2,5t4.21,10.31v.89a16.28,16.28,0,0,1-1.27,6.57,13.91,13.91,0,0,1-3.67,5,16.71,16.71,0,0,1-5.81,3.19,27.42,27.42,0,0,1-16.52-.34,17.58,17.58,0,0,1-6.35-4,16.88,16.88,0,0,1-3.85-6,21.12,21.12,0,0,1-1.31-7.53V123h9.59v1.78a10.36,10.36,0,0,0,2.65,7.46c1.77,1.85,4.51,2.78,8.24,2.78q4.37,0,6.46-1.93a6,6,0,0,0,2.11-4.6,6.77,6.77,0,0,0-.44-2.41A5,5,0,0,0,293,124a10.43,10.43,0,0,0-3-1.67,24.8,24.8,0,0,0-4.79-1.26,47.79,47.79,0,0,1-7.05-1.75,19.36,19.36,0,0,1-5.55-2.85A12.29,12.29,0,0,1,269,112a14.79,14.79,0,0,1-1.31-6.53v-.45a13.64,13.64,0,0,1,1.28-5.89,14.09,14.09,0,0,1,3.55-4.71A16.34,16.34,0,0,1,278,91.33,22.21,22.21,0,0,1,285.24,90.22Zm-43.37,62.87v6.4h-6.39v-6.4Zm-88.49,19.73h-9.29v13.47h9.29a7.83,7.83,0,0,0,5.39-1.65,5.88,5.88,0,0,0,1.85-4.64v-.88a6.08,6.08,0,0,0-1.85-4.43A7.26,7.26,0,0,0,153.38,172.82Zm275,11H415l6.05,26.2h1.33ZM256.73,163.6v9.22H234v11.71h21.81v9.23H234v11.85h23.57v9.22H224.37V163.6H229v6.27h6.4V163.6Zm315.78,0v9.22H549.82v11.71h21.82v9.23H549.82v11.85h23.57v9.22H540.15V163.6Zm-269.19,0v9.22H290.89v16.47h-4.28v6.39h4.28v9.92h12.43v9.22H268.69v-9.22h12.43V172.82H268.69V163.6Zm-117.41,0L196,210h1.32l10.1-46.4h10l-11.64,51.23H187.54L175.9,163.6Zm-31.79,0a20.55,20.55,0,0,1,7,1.1,14.16,14.16,0,0,1,5.06,3,13.29,13.29,0,0,1,3.1,4.5,14.18,14.18,0,0,1,1.07,5.49v1.75a11,11,0,0,1-1.7,5.9,10.69,10.69,0,0,1-5.24,4.2v1.32a6.23,6.23,0,0,1,4.09,2,6.09,6.09,0,0,1,1.52,4.24v17.71h-9.74V199.46a4.25,4.25,0,0,0-.93-2.85,3.79,3.79,0,0,0-3.06-1.1H144.09v19.32h-9.74V163.6Zm256.33,0,2.51,11h17.55l2.51-11H443.2l-12.32,51.23H412.59L400.27,163.6Zm-86.3,0v42h23.49v9.22H314.4V163.6Zm143.55,0,6,46.4h1.32V163.6h9.7v51.23h-19l-6-46.4h-1.33V191.5H453v6.39h5.44v16.94h-9.7V163.6Zm-97.85,0v3.88h4.52v6.39H363.46v6.4h6.39v25.33h23.49v9.22H360.1V163.6Zm-249.8,15.08v-6.4h-5.19V163.6h9.79v33.75q0,8.85-4.71,13.86t-14,5q-9.27,0-14-5t-4.71-13.86V163.6h9.79v33.75a10.86,10.86,0,0,0,2.15,7.15q2.16,2.58,6.75,2.58t6.75-2.58a10.8,10.8,0,0,0,2.16-7.15V185.07h-4.41v-6.39ZM60.87,162.22a22.73,22.73,0,0,1,8,1.3A17,17,0,0,1,74.7,167a14.61,14.61,0,0,1,3.56,5.12,15.7,15.7,0,0,1,1.2,6.08v2.67H69.87v-1.78a7.27,7.27,0,0,0-2.36-5.41,9.09,9.09,0,0,0-6.64-2.3,9.58,9.58,0,0,0-5.74,1.52A4.81,4.81,0,0,0,53,177.05a5.53,5.53,0,0,0,.51,2.41,4.89,4.89,0,0,0,1.78,1.93,13.25,13.25,0,0,0,3.34,1.52,41.68,41.68,0,0,0,5.27,1.26q8,1.49,12.2,5t4.21,10.31v.89a16.28,16.28,0,0,1-1.27,6.57,13.91,13.91,0,0,1-3.67,5,16.8,16.8,0,0,1-5.81,3.19,24.81,24.81,0,0,1-7.7,1.11c-.9,0-1.77,0-2.61-.11v-4.83h-6.4v3.42l-.28-.11a17.35,17.35,0,0,1-5.88-3.82,16.88,16.88,0,0,1-3.85-6,21.12,21.12,0,0,1-1.31-7.53V195h9.59v1.78a10.36,10.36,0,0,0,2.65,7.46Q56.43,207,62,207c2.9,0,5.06-.64,6.46-1.93a6,6,0,0,0,2.11-4.6,6.77,6.77,0,0,0-.44-2.41A5.12,5.12,0,0,0,68.64,196a10.43,10.43,0,0,0-3-1.67,25,25,0,0,0-4.79-1.26,47.79,47.79,0,0,1-7-1.75,19.36,19.36,0,0,1-5.55-2.85A12.19,12.19,0,0,1,44.6,184a14.79,14.79,0,0,1-1.31-6.53v-.45a13.78,13.78,0,0,1,1.27-5.89,14.26,14.26,0,0,1,3.56-4.71,16.34,16.34,0,0,1,5.52-3.12A22.17,22.17,0,0,1,60.87,162.22Zm452.65,5.48h6.4v-4.13l.42.17a15.23,15.23,0,0,1,5.37,3.67,16.5,16.5,0,0,1,3.55,6.08,25.05,25.05,0,0,1,1.2,8v1.34h-9.57V181.5a16.11,16.11,0,0,0-.43-3.7,9.94,9.94,0,0,0-1.45-3.34,7.54,7.54,0,0,0-2.76-2.41,9.15,9.15,0,0,0-4.35-.93,8.65,8.65,0,0,0-4.13.93,8.34,8.34,0,0,0-2.89,2.52,10.63,10.63,0,0,0-1.71,3.71,17.76,17.76,0,0,0-.54,4.41v13.06a19.72,19.72,0,0,0,.51,4.63,10.64,10.64,0,0,0,1.59,3.67,7.15,7.15,0,0,0,2.86,2.41,9.89,9.89,0,0,0,4.31.86,10.42,10.42,0,0,0,4.53-.86,6.63,6.63,0,0,0,2.76-2.3,8.81,8.81,0,0,0,1.34-3.33,20.8,20.8,0,0,0,.36-3.9V195.6h9.57v1.33q0,9.27-4.75,14.28t-13.81,5q-8.68,0-13.76-5.42T493.06,195V183.43a28.58,28.58,0,0,1,1.31-8.94,18.1,18.1,0,0,1,3.77-6.67,16.46,16.46,0,0,1,5.94-4.16,18.56,18.56,0,0,1,3-.95v-5.42h6.4ZM66.27,220.88v6.4h-6.4v-6.4ZM26.18,246.1v6.4h-6.4v-6.4Zm304.48-1.28h-9.29v13.47h9.29a7.83,7.83,0,0,0,5.39-1.65A5.88,5.88,0,0,0,337.9,252v-.88a6.08,6.08,0,0,0-1.85-4.43A7.26,7.26,0,0,0,330.66,244.82Zm-45.48,0h-9.52v2h-5.05v6.4h5.05v5h9.52a7.18,7.18,0,0,0,5.13-1.76,5.93,5.93,0,0,0,1.88-4.53v-.88a5.94,5.94,0,0,0-1.88-4.54A7.23,7.23,0,0,0,285.18,244.82Zm91.88,14.07v6.4h-6.39v-6.4ZM578,268.49v6.39h-6.4v-6.39ZM373.26,243.12a8.8,8.8,0,0,0-4.2.93,7.81,7.81,0,0,0-2.83,2.48,10.5,10.5,0,0,0-1.59,3.71,19.89,19.89,0,0,0-.51,4.6V267.6a23.92,23.92,0,0,0,.43,4.74,9.84,9.84,0,0,0,1.52,3.71,7.27,7.27,0,0,0,2.83,2.41,11.43,11.43,0,0,0,8.7,0,7.17,7.17,0,0,0,2.82-2.41,9.69,9.69,0,0,0,1.53-3.71,23.92,23.92,0,0,0,.43-4.74v-9.55h5v-6.39h-5.21c-.08-.49-.17-1-.28-1.42a10.69,10.69,0,0,0-1.59-3.71,7.89,7.89,0,0,0-2.83-2.48A8.8,8.8,0,0,0,373.26,243.12Zm-87.12-7.52a17.4,17.4,0,0,1,6.94,1.28,14.68,14.68,0,0,1,4.9,3.37,14.12,14.12,0,0,1,3,4.76,15.58,15.58,0,0,1,1,5.45v1.76a16.31,16.31,0,0,1-1,5.59,14.76,14.76,0,0,1-3,4.91,14.34,14.34,0,0,1-4.9,3.47,16.88,16.88,0,0,1-6.94,1.32H275.66v19.32h-9.74V244.5H261.3v-6.4h4.62v-2.5Zm45.26,0a20.51,20.51,0,0,1,7,1.1,14.16,14.16,0,0,1,5.06,3,13.29,13.29,0,0,1,3.1,4.5,14.18,14.18,0,0,1,1.07,5.49v1.75a11,11,0,0,1-1.7,5.9,10.69,10.69,0,0,1-5.24,4.2v1.32a6.28,6.28,0,0,1,4.1,2,6.13,6.13,0,0,1,1.51,4.24v17.71h-9.74V271.46a4.3,4.3,0,0,0-.92-2.85,3.82,3.82,0,0,0-3.07-1.1H321.37v19.32h-9.74V235.6Zm177.73-1.38a22.18,22.18,0,0,1,8,1.33,15.39,15.39,0,0,1,5.83,3.86,16.5,16.5,0,0,1,3.55,6.08,25.05,25.05,0,0,1,1.2,8v1.34h-9.57V253.5a16.11,16.11,0,0,0-.43-3.7,9.94,9.94,0,0,0-1.45-3.34,7.54,7.54,0,0,0-2.76-2.41,9.15,9.15,0,0,0-4.35-.93,8.65,8.65,0,0,0-4.13.93,8.34,8.34,0,0,0-2.89,2.52,10.63,10.63,0,0,0-1.71,3.71,17.76,17.76,0,0,0-.54,4.41v13.06a19.72,19.72,0,0,0,.51,4.63,10.64,10.64,0,0,0,1.59,3.67,7.15,7.15,0,0,0,2.86,2.41,9.89,9.89,0,0,0,4.31.86,10.42,10.42,0,0,0,4.53-.86,6.63,6.63,0,0,0,2.76-2.3,8.81,8.81,0,0,0,1.34-3.33,20.8,20.8,0,0,0,.36-3.9V267.6h9.57v1.33q0,9.27-4.75,14.28t-13.81,5q-8.69,0-13.76-5.42T490.29,267V255.43a28.58,28.58,0,0,1,1.31-8.94,18.1,18.1,0,0,1,3.77-6.67,16.46,16.46,0,0,1,5.94-4.16A20.29,20.29,0,0,1,509.13,234.22Zm-135.87,0q8.78,0,13.73,5.56t5,15.65V267q0,10.39-5,15.8t-13.73,5.42q-8.77,0-13.73-5.42t-5-15.8V255.43q0-10.08,5-15.65T373.26,234.22ZM480.6,235.6v51.23H447.36v-9.22h23.57V265.76H449.11v-9.23h21.82V244.82H448.74v.07H433.35v26.82a19.72,19.72,0,0,1-1.76,8.73h-5.83v5.95a18.13,18.13,0,0,1-8.44,1.83,21.47,21.47,0,0,1-7-1.07A14.74,14.74,0,0,1,405,284a14.18,14.18,0,0,1-3.48-5.16,19,19,0,0,1-1.23-7.11v-4.86h9.57v4.86a7.47,7.47,0,0,0,1.89,5.42,7,7,0,0,0,5.3,1.95,6.46,6.46,0,0,0,5-1.92,7.72,7.72,0,0,0,1.77-5.45V244.89H404.35V235.6ZM442,294.07v6.4h-6.39v-6.4ZM572,235.6v9.26H558.52v-6.38h-6.4v6.4h6.09v61.34h-9.8V244.86h-13.8V235.6Zm-75.58,90.45v6.4H490v-6.4Zm-22.4,0v6.4h-6.39v-6.4Zm-96,32v6.4h-6.39V358Zm-32,32v6.4h-6.4V390Zm0,41.58V438h-6.4v-6.39Z"/></clipPath></defs><g class="cls-2"><rect class="cls-3" x="-2.95" y="3.19" width="588" height="442"/></g></svg>