<svg id="Layer_1" data-name="Layer 1" xmlns="http://www.w3.org/2000/svg" viewBox="0 0 460 45.98"><defs><style>.cls-1{fill:#fff;}</style></defs><g id="LOGO"><g id="PROJECT"><path id="Combined-Shape" class="cls-1" d="M452.46,14.72V18h-4.82V15.74H445.4V18h2.22V39.32h-3.43V18h-4.83V14.72ZM406,34.08v2.23h-2.24V34.08ZM143.82,39.32v2.23h-2.24V39.32ZM430.44,14.24a7.77,7.77,0,0,1,2.79.46,5.4,5.4,0,0,1,2,1.35,5.66,5.66,0,0,1,1.24,2.12,8.61,8.61,0,0,1,.42,2.79v.46h-3.35V21a5.83,5.83,0,0,0-.15-1.3,3.79,3.79,0,0,0-.51-1.16,2.75,2.75,0,0,0-1-.84,3.26,3.26,0,0,0-1.52-.32,3.13,3.13,0,0,0-1.45.32,3.05,3.05,0,0,0-1,.88,3.83,3.83,0,0,0-.6,1.29,6.49,6.49,0,0,0-.19,1.54v4.55a6.78,6.78,0,0,0,.18,1.61,3.83,3.83,0,0,0,.56,1.28,2.56,2.56,0,0,0,1,.84,3.48,3.48,0,0,0,1.51.3,3.7,3.7,0,0,0,1.59-.3,2.46,2.46,0,0,0,1-.8,3.05,3.05,0,0,0,.47-1.16,6.82,6.82,0,0,0,.13-1.36v-.47h3.35v.47a7,7,0,0,1-1.66,5,7.32,7.32,0,0,1-9.66-.14,7.76,7.76,0,0,1-1.78-5.5v-4a10.08,10.08,0,0,1,.46-3.12,6.21,6.21,0,0,1,1.32-2.32,5.78,5.78,0,0,1,2.08-1.45A7.23,7.23,0,0,1,430.44,14.24Zm-10,.48V32.56H408.81V29.35h8.25V25.22h-7.64V22h7.64V17.93l-7.77,0H403.9V27.3a7,7,0,0,1-.55,2.92h-2.2v2.23h0a6.44,6.44,0,0,1-2.88.6,7.48,7.48,0,0,1-2.44-.38,4.92,4.92,0,0,1-3.1-2.9,6.49,6.49,0,0,1-.43-2.47V25.6h3.35v1.7a2.58,2.58,0,0,0,.66,1.88,2.45,2.45,0,0,0,1.86.68,2.29,2.29,0,0,0,1.74-.66,2.72,2.72,0,0,0,.62-1.9V18h-6.8V14.72Zm-37.59-.48a6.14,6.14,0,0,1,4.81,1.94,7.88,7.88,0,0,1,1.74,5.45v4a7.84,7.84,0,0,1-1.74,5.5,7.07,7.07,0,0,1-9.62,0,7.89,7.89,0,0,1-1.73-5.5v-4a7.92,7.92,0,0,1,1.73-5.45A6.15,6.15,0,0,1,382.86,14.24Zm-219.27.13V26.13a3.72,3.72,0,0,0,.76,2.49,3.54,3.54,0,0,0,4.72,0,3.72,3.72,0,0,0,.76-2.49V21.85h-1.54V19.62h3.45V17.39h-1.91v-3h3.43V26.13A6.73,6.73,0,0,1,171.61,31a7.74,7.74,0,0,1-9.8,0,6.73,6.73,0,0,1-1.65-4.82V14.37Zm-12.67-.48a8.06,8.06,0,0,1,2.8.45,6,6,0,0,1,2.05,1.23A5.16,5.16,0,0,1,157,17.35a5.45,5.45,0,0,1,.42,2.12v.93h-3.35v-.62a2.54,2.54,0,0,0-.83-1.88,3.19,3.19,0,0,0-2.33-.81,3.44,3.44,0,0,0-2,.53,1.69,1.69,0,0,0-.73,1.44,1.92,1.92,0,0,0,.18.84,1.63,1.63,0,0,0,.62.67,5,5,0,0,0,1.17.53,16.84,16.84,0,0,0,1.84.44,9.24,9.24,0,0,1,4.27,1.73,4.37,4.37,0,0,1,1.48,3.59v.31a5.64,5.64,0,0,1-.45,2.29A4.69,4.69,0,0,1,156,31.2a5.93,5.93,0,0,1-2,1.11,8.71,8.71,0,0,1-2.7.39c-.25,0-.5,0-.74,0V31.05H148.3v1.18l-.1,0A6.09,6.09,0,0,1,146,30.8a5.71,5.71,0,0,1-1.35-2.09,7.23,7.23,0,0,1-.46-2.63v-.77h3.36v.62a3.65,3.65,0,0,0,.92,2.6,3.87,3.87,0,0,0,2.89,1,3.25,3.25,0,0,0,2.26-.67,2.06,2.06,0,0,0,.74-1.6,2.4,2.4,0,0,0-.15-.84,1.67,1.67,0,0,0-.54-.72,3.47,3.47,0,0,0-1-.58,8.41,8.41,0,0,0-1.68-.44,17.34,17.34,0,0,1-2.46-.61,6.87,6.87,0,0,1-2-1,4.27,4.27,0,0,1-1.28-1.55,5.06,5.06,0,0,1-.46-2.28v-.15a4.88,4.88,0,0,1,.44-2.06,5.23,5.23,0,0,1,1.25-1.64,5.83,5.83,0,0,1,1.93-1.08A7.76,7.76,0,0,1,150.92,13.89Zm158.5-2.06v3.91h2.24V14.36l.29.12a5.3,5.3,0,0,1,1.74,1.22,5.61,5.61,0,0,1,1.24,2.12,8.61,8.61,0,0,1,.42,2.79v.46H312v-.46a5.68,5.68,0,0,0-.15-1.29,3.42,3.42,0,0,0-.51-1.17,2.63,2.63,0,0,0-1-.84,3.29,3.29,0,0,0-1.52-.32,3.13,3.13,0,0,0-1.45.32,3,3,0,0,0-1,.88,3.65,3.65,0,0,0-.6,1.29,6,6,0,0,0-.19,1.54v4.55a6.78,6.78,0,0,0,.18,1.61,3.62,3.62,0,0,0,.55,1.28,2.59,2.59,0,0,0,1,.84,3.41,3.41,0,0,0,1.51.3,3.62,3.62,0,0,0,1.58-.3,2.34,2.34,0,0,0,1-.8,3.15,3.15,0,0,0,.47-1.16A7.56,7.56,0,0,0,312,26v-.46h3.35V26a6.91,6.91,0,0,1-1.66,5,7.31,7.31,0,0,1-9.65-.14,7.71,7.71,0,0,1-1.78-5.5v-4a9.73,9.73,0,0,1,.46-3.11A6.25,6.25,0,0,1,304,15.84a5.7,5.7,0,0,1,2.08-1.45,6.9,6.9,0,0,1,1.06-.33V11.83Zm58.79,2.89a7.29,7.29,0,0,1,2.45.38,5,5,0,0,1,1.77,1.06,4.49,4.49,0,0,1,1.09,1.57,4.85,4.85,0,0,1,.37,1.91v.61a3.84,3.84,0,0,1-.59,2.05,3.76,3.76,0,0,1-1.84,1.47v.46a2.21,2.21,0,0,1,1.44.69,2.13,2.13,0,0,1,.53,1.48v6.16H370V27.21a1.44,1.44,0,0,0-.33-1,1.31,1.31,0,0,0-1.07-.39h-3.93v6.73h-3.41V14.72Zm-15.85,0a6.06,6.06,0,0,1,2.43.45,5.23,5.23,0,0,1,1.72,1.17,4.93,4.93,0,0,1,1,1.66,5.41,5.41,0,0,1,.35,1.9v.61a5.73,5.73,0,0,1-.35,1.95,5.35,5.35,0,0,1-1,1.71,5.17,5.17,0,0,1-1.72,1.21,6.06,6.06,0,0,1-2.43.45h-3.67v6.73h-3.41V17.82h-1.62V15.59h1.62v-.87ZM103.43,13.54a8.06,8.06,0,0,1,2.8.45,6.29,6.29,0,0,1,2,1.23A5.16,5.16,0,0,1,109.52,17a5.49,5.49,0,0,1,.42,2.12v.93h-3.35v-.62a2.54,2.54,0,0,0-.83-1.88,3.19,3.19,0,0,0-2.33-.8,3.35,3.35,0,0,0-2,.53,1.67,1.67,0,0,0-.73,1.43,2.07,2.07,0,0,0,.17.84,1.73,1.73,0,0,0,.63.67,4.28,4.28,0,0,0,1.17.53,14.37,14.37,0,0,0,1.84.44,9.24,9.24,0,0,1,4.27,1.73,4.37,4.37,0,0,1,1.48,3.59v.31a5.6,5.6,0,0,1-.45,2.29,4.69,4.69,0,0,1-1.28,1.74,5.89,5.89,0,0,1-2,1.11,8.6,8.6,0,0,1-2.69.39,8.86,8.86,0,0,1-3.09-.5,6.24,6.24,0,0,1-2.23-1.4,5.81,5.81,0,0,1-1.34-2.09,7.22,7.22,0,0,1-.46-2.62V25H100v.62a3.59,3.59,0,0,0,.92,2.6,3.86,3.86,0,0,0,2.89,1,3.25,3.25,0,0,0,2.26-.68,2.09,2.09,0,0,0,.74-1.6,2.4,2.4,0,0,0-.15-.84,1.8,1.8,0,0,0-.54-.72,3.47,3.47,0,0,0-1-.58,9.15,9.15,0,0,0-1.68-.44,17,17,0,0,1-2.46-.61,6.87,6.87,0,0,1-2-1,4.27,4.27,0,0,1-1.28-1.55,5.06,5.06,0,0,1-.46-2.28v-.15a4.8,4.8,0,0,1,.44-2.05A5,5,0,0,1,99,15a5.68,5.68,0,0,1,1.93-1.09A7.76,7.76,0,0,1,103.43,13.54Zm132.39.83v3.21h-4.35V24H230v2.22h1.46V29h4.35v3.22H223.69V29h4.36V17.58h-4.36V14.37Zm-52.24,0a7,7,0,0,1,2.45.39,4.84,4.84,0,0,1,1.77,1.05,4.58,4.58,0,0,1,1.09,1.57,4.89,4.89,0,0,1,.37,1.91v.61a3.88,3.88,0,0,1-.59,2.06,3.8,3.8,0,0,1-1.84,1.46v.46a2.21,2.21,0,0,1,1.44.69,2.13,2.13,0,0,1,.53,1.48v6.17h-3.41V26.86a1.46,1.46,0,0,0-.33-1,1.3,1.3,0,0,0-1.07-.38h-3.93v6.73h-3.41V14.37Zm109.8,0,2.11,16.16H296V14.37h3.4V32.22h-6.64L290.6,16.06h-.46v9.61h-1.57V27.9h1.57v4.32h-3.4V14.37Zm-50.27,0V29h8.23v3.22H239.7V14.37Zm87,0v3.21h-7.95v4.08h7.64v3.21h-7.64V29h8.26v3.22H318.75V14.37ZM257.37,18v2.23h1.75V29h8.22v3.22H255.7V14.37h3.42v1.35h1.58V18Zm-37.86-3.58v3.21h-7.95v4.08h7.64v3.21h-7.64V29h8.25v3.22H208.18V14.37h1.52v1.72h2.24V14.37Zm-24.8,0,3.53,16.16h.47l3.53-16.16h3.51l-4.08,17.85h-6.39L191.2,14.37Zm78.62,0,.88,3.83h6.15l.88-3.83h3.56l-4.31,17.85h-6.41l-4.31-17.85ZM89,14a7.14,7.14,0,0,1,2.46.38l.09,0v2.07h2.24V16.1a4.71,4.71,0,0,1,.52.93,4.9,4.9,0,0,1,.38,1.91v.62a3.79,3.79,0,0,1-.6,2.05,3.68,3.68,0,0,1-1.83,1.46v.46a2.19,2.19,0,0,1,1.43.69,2.08,2.08,0,0,1,.53,1.48v6.17H90.85V26.51a1.47,1.47,0,0,0-.32-1,1.35,1.35,0,0,0-1.07-.38H85.53v6.73H82.12V14Zm36,0v3.21h-8v4.07h7.69v3.22h-7.69v4.13h18.42v3.21H113.64V14ZM78.24,14V31.87H72.55V30.43H70.31v1.44H66.6V28.66h8.26V24.53H67.22V21.31h7.64V17.24h-8V14ZM52.65,14l.66,3h-.92v2.23H53.8l2.38,10.9h.47L60.18,14h3.51L59.61,31.87H53.22L49.14,14ZM26.82,14V28.66h7.77V14h6.64l2.11,16.16h.47V22.07h1.86V19.85H43.8V14H47.2v12h1.61v2.23H47.2v3.56H40.56L38.45,15.71H38V31.87H19.09V28.66h4.33V17.24H3.55V14h9.07v2.07h2.24V14Zm252.79,7.38h-4.68l2.12,9.12h.47Zm103.25-4.07a3.19,3.19,0,0,0-1.47.32,3,3,0,0,0-1,.87,3.79,3.79,0,0,0-.56,1.29,7.41,7.41,0,0,0-.17,1.6v4.44a8.46,8.46,0,0,0,.15,1.66,3.41,3.41,0,0,0,.53,1.29,2.68,2.68,0,0,0,1,.84,3.43,3.43,0,0,0,1.52.3,3.48,3.48,0,0,0,1.53-.3,2.68,2.68,0,0,0,1-.84,3.41,3.41,0,0,0,.53-1.29,8.46,8.46,0,0,0,.15-1.66V22.42h1.65V20.19H386c0-.12,0-.25-.08-.37a3.6,3.6,0,0,0-.55-1.29,3,3,0,0,0-1-.87A3.2,3.2,0,0,0,382.86,17.34Zm71.69,8.83V28.4h-2.24V26.17Zm-70.49-3.39V25h-2.27V22.78ZM368,17.93h-3.26v4.69H368a2.79,2.79,0,0,0,1.89-.57,2,2,0,0,0,.64-1.62v-.3a2.13,2.13,0,0,0-.64-1.55A2.58,2.58,0,0,0,368,17.93Zm-15.93,0h-3.33v.59h-1.86v2.23h1.86v1.87H352a2.53,2.53,0,0,0,1.8-.61,2.05,2.05,0,0,0,.66-1.58v-.3a2.07,2.07,0,0,0-.66-1.59A2.58,2.58,0,0,0,352,17.93Zm-168.7-.35h-3.26v4.69h3.26a2.74,2.74,0,0,0,1.88-.57,2,2,0,0,0,.65-1.62v-.3a2.1,2.1,0,0,0-.65-1.55A2.54,2.54,0,0,0,183.32,17.58Zm-94.53-.34H85.53v4.69h3.26a2.71,2.71,0,0,0,1.88-.58,2.05,2.05,0,0,0,.65-1.62v-.3a2.1,2.1,0,0,0-.65-1.54A2.51,2.51,0,0,0,88.79,17.24Zm7.63-7.19v2.22H94.18V10.05ZM214.3,7.71V9.94h-2.24V7.71ZM13,6.49V8.72H10.73V6.49ZM82.93,0V2.23H80.69V0Z"/></g></g></svg>