<?xml version="1.0" encoding="UTF-8"?>
<svg width="460px" height="61px" viewBox="0 0 460 61" version="1.1" xmlns="http://www.w3.org/2000/svg" xmlns:xlink="http://www.w3.org/1999/xlink">
    <!-- Generator: Sketch 63.1 (92452) - https://sketch.com -->
    <title>LOGO</title>
    <desc>Created with Sketch.</desc>
    <g id="LOGO" stroke="none" stroke-width="1" fill="none" fill-rule="evenodd">
        <g id="PROJECT" transform="translate(4.000000, -9.000000)" fill="#FFFFFF" fill-rule="nonzero">
            <path d="M380.991668,73.1548376 L380.991668,75.3824506 L378.751401,75.3824506 L378.751401,73.1548376 L380.991668,73.1548376 Z M414.595667,62.0167727 L414.595667,64.2443857 L412.355401,64.2443857 L412.355401,62.0167727 L414.595667,62.0167727 Z M422.4366,62.0167727 L422.4366,64.2443857 L420.196334,64.2443857 L420.196334,62.0167727 L422.4366,62.0167727 Z M135.222655,58.8991965 L135.222655,61.1268095 L132.982389,61.1268095 L132.982389,58.8991965 L135.222655,58.8991965 Z M448.901762,30.5156412 L448.901762,33.7406344 L444.085,33.74 L444.085074,31.5321937 L441.844808,31.5321937 L441.844808,33.7598067 L444.069,33.759 L444.069409,55.1092751 L440.639997,55.1092751 L440.639997,33.7406344 L435.807644,33.7406344 L435.807644,30.5156412 L448.901762,30.5156412 Z M403.394334,50.8787077 L403.394334,53.1063207 L401.154068,53.1063207 L401.154068,50.8787077 L403.394334,50.8787077 Z M149.261048,50.1165584 L149.261048,52.3441714 L147.020781,52.3441714 L147.020781,50.1165584 L149.261048,50.1165584 Z M426.8865,30.0334131 C427.935383,30.0334131 428.865844,30.1884149 429.677882,30.4984187 C430.48992,30.8084225 431.170848,31.2562058 431.720666,31.8417685 C432.270484,32.4273312 432.684961,33.1334509 432.9641,33.9601277 C433.243238,34.7868045 433.382807,35.7168159 433.382807,36.7501618 L433.382807,37.2151675 L430.033149,37.2151675 L430.033149,36.7501618 C430.033149,36.319601 429.982396,35.8890402 429.880892,35.4584794 C429.779387,35.0279185 429.610212,34.6404138 429.373368,34.2959652 C429.136523,33.9515165 428.815091,33.671652 428.409072,33.4563716 C428.003053,33.2410912 427.495529,33.1334509 426.8865,33.1334509 C426.328224,33.1334509 425.846076,33.2410912 425.440057,33.4563716 C425.034038,33.671652 424.695688,33.9644333 424.425009,34.3347156 C424.154329,34.7049979 423.955549,35.1355588 423.828668,35.6263981 C423.701787,36.1172374 423.638347,36.6296048 423.638347,37.1635002 L423.638347,41.7102225 C423.638347,42.2957852 423.697558,42.8339862 423.81598,43.3248255 C423.934402,43.8156649 424.120495,44.2419201 424.374257,44.6035912 C424.628018,44.9652622 424.962138,45.2451268 425.376616,45.4431847 C425.791094,45.6412427 426.294389,45.7402717 426.8865,45.7402717 C427.529364,45.7402717 428.058035,45.6412427 428.472513,45.4431847 C428.88699,45.2451268 429.208422,44.9781791 429.436808,44.6423416 C429.665194,44.3065042 429.82168,43.9189995 429.906268,43.4798274 C429.990855,43.0406554 430.033149,42.5885665 430.033149,42.1235608 L430.033149,41.6585552 L433.382807,41.6585552 L433.382807,42.1235608 C433.382807,44.2763649 432.82876,45.9340241 431.720666,47.0965383 C430.612572,48.2590525 429.001183,48.8403096 426.8865,48.8403096 C424.856404,48.8403096 423.249245,48.2116908 422.065022,46.9544532 C420.8808,45.6972156 420.288689,43.8630265 420.288689,41.451886 L420.288689,37.4218367 C420.288689,36.2679337 420.440946,35.2302821 420.74546,34.308882 C421.049975,33.3874818 421.489829,32.6124724 422.065022,31.9838536 C422.640216,31.3552348 423.333832,30.8730066 424.145871,30.5371692 C424.957909,30.2013318 425.871452,30.0334131 426.8865,30.0334131 Z M416.893917,30.5156412 L416.893917,48.3580815 L405.254701,48.3580815 L405.254701,45.1464422 L413.509828,45.1464422 L413.509828,41.0171918 L405.86999,41.0171918 L405.86999,37.8055525 L413.509828,37.8055525 L413.509828,33.7272804 L405.739,33.7488613 L405.739668,33.7501869 L400.34974,33.7501869 L400.34974,43.091394 C400.34974,44.2289303 400.163871,45.2025555 399.792134,46.0122698 L397.599542,46.0116781 L397.599542,48.2392911 L397.617233,48.2406649 C396.808083,48.6404281 395.847538,48.8403096 394.735599,48.8403096 C393.838014,48.8403096 393.025107,48.7162631 392.296877,48.46817 C391.568648,48.2200769 390.942032,47.8522147 390.417029,47.3645835 C389.892026,46.8769523 389.485573,46.2781069 389.197668,45.5680474 C388.909763,44.8579879 388.765811,44.0324367 388.765811,43.091394 L388.765811,41.3975171 L392.119054,41.3975171 L392.119054,43.091394 C392.119054,43.8955578 392.339216,44.5243454 392.779541,44.9777569 C393.219866,45.4311684 393.838014,45.6578742 394.633985,45.6578742 C395.37915,45.6578742 395.959194,45.4354459 396.374115,44.9905893 C396.789036,44.5457328 396.996497,43.9126677 396.996497,43.091394 L396.996497,33.7501869 L390.197235,33.7501869 L390.197235,30.5156412 L416.893917,30.5156412 Z M379.308948,30.0334131 C381.355961,30.0334131 382.958891,30.6792543 384.117738,31.9709367 C385.276584,33.2626192 385.856007,35.0795858 385.856007,37.4218367 L385.856007,41.451886 C385.856007,43.8630265 385.276584,45.6972156 384.117738,46.9544532 C382.958891,48.2116908 381.355961,48.8403096 379.308948,48.8403096 C377.261935,48.8403096 375.659005,48.2116908 374.500158,46.9544532 C373.341312,45.6972156 372.761889,43.8630265 372.761889,41.451886 L372.761889,37.4218367 C372.761889,35.0795858 373.341312,33.2626192 374.500158,31.9709367 C375.659005,30.6792543 377.261935,30.0334131 379.308948,30.0334131 Z M160.038255,30.1673653 L160.038255,41.9218445 C160.038255,42.9826563 160.289399,43.8124849 160.791687,44.4113303 C161.293974,45.0101756 162.082046,45.3095983 163.155903,45.3095983 C164.229759,45.3095983 165.017831,45.0101756 165.520118,44.4113303 C166.022406,43.8124849 166.27355,42.9826563 166.27355,41.9218445 L166.273,37.645 L164.731741,37.6455775 L164.731741,35.4179645 L166.273,35.417 L166.273,35.412 L168.18941,35.4128282 L168.18941,33.1852153 L166.273,33.185 L166.27355,30.1673653 L169.702962,30.1673653 L169.702962,41.9218445 C169.702962,43.9750286 169.153043,45.5833562 168.053207,46.7468272 C166.95337,47.9102982 165.320935,48.4920337 163.155903,48.4920337 C160.99087,48.4920337 159.358435,47.9102982 158.258598,46.7468272 C157.158762,45.5833562 156.608843,43.9750286 156.608843,41.9218445 L156.608843,30.1673653 L160.038255,30.1673653 Z M147.369035,29.6851372 C148.4201,29.6851372 149.352497,29.8358335 150.166225,30.1372261 C150.979953,30.4386186 151.662298,30.8476514 152.213259,31.3643244 C152.764221,31.8809974 153.179561,32.4751713 153.45928,33.1468462 C153.738999,33.818521 153.878859,34.5246408 153.878859,35.2652054 L153.878859,36.1952168 L150.522231,36.1952168 L150.522231,35.5752092 C150.522231,34.851867 150.24675,34.2232482 149.695788,33.6893528 C149.144827,33.1554574 148.369242,32.8885097 147.369035,32.8885097 C146.521401,32.8885097 145.851771,33.0650396 145.360144,33.4180995 C144.868517,33.7711594 144.622703,34.2490819 144.622703,34.851867 C144.622703,35.1618708 144.682037,35.4417353 144.800706,35.6914606 C144.919375,35.9411859 145.127045,36.1650775 145.423716,36.3631355 C145.720388,36.5611935 146.110299,36.7377234 146.59345,36.8927253 C147.076601,37.0477272 147.691135,37.1941179 148.437053,37.3318973 C150.301846,37.676346 151.72587,38.2532975 152.709125,39.0627518 C153.692379,39.8722062 154.184007,41.0691652 154.184007,42.653629 L154.184007,42.9636328 C154.184007,43.807532 154.035671,44.5696247 153.738999,45.2499108 C153.442327,45.9301969 153.014273,46.511454 152.454835,46.9936821 C151.895397,47.4759102 151.21729,47.8461925 150.420515,48.104529 C149.623739,48.3628655 148.725248,48.4920337 147.725041,48.4920337 C147.470645,48.4920337 147.222865,48.4840915 146.9817,48.468207 L146.98151,46.8402774 L144.741244,46.8402774 L144.740185,48.0268036 C144.70505,48.014217 144.670127,48.001375 144.635417,47.9882776 C143.745402,47.6524401 143.003723,47.1874345 142.41038,46.5932605 C141.817037,45.9990866 141.367791,45.3015781 141.062643,44.500735 C140.757495,43.6998918 140.604921,42.8258534 140.604921,41.8786196 L140.604921,41.1036101 L143.961549,41.1036101 L143.961549,41.7236177 C143.961549,42.8086309 144.270935,43.6740582 144.889707,44.3198994 C145.50848,44.9657406 146.470543,45.2886613 147.775899,45.2886613 C148.793059,45.2886613 149.547452,45.0647696 150.03908,44.6169864 C150.530707,44.1692031 150.776521,43.6353077 150.776521,43.0153001 C150.776521,42.7225188 150.725663,42.4426542 150.623947,42.1757065 C150.522231,41.9087588 150.344228,41.6676448 150.089938,41.4523644 C149.835648,41.237084 149.488118,41.0433316 149.047349,40.8711073 C148.606579,40.6988829 148.047141,40.5524923 147.369035,40.4319352 C146.470543,40.2769333 145.648339,40.0745697 144.902422,39.8248445 C144.156505,39.5751192 143.508065,39.2435874 142.957103,38.830249 C142.406142,38.4169106 141.978087,37.9002376 141.672939,37.28023 C141.367791,36.6602225 141.215217,35.9024354 141.215217,35.0068689 L141.215217,34.851867 C141.215217,34.1113024 141.363553,33.4267107 141.660224,32.7980919 C141.956896,32.1694731 142.372236,31.6226609 142.906245,31.1576552 C143.440254,30.6926495 144.084456,30.3309784 144.838849,30.0726419 C145.593243,29.8143054 146.436638,29.6851372 147.369035,29.6851372 Z M305.868539,27.621319 L305.870331,29.3045807 L305.870331,31.5321937 L308.110597,31.5321937 L308.11,30.157 L308.391837,30.2728527 C309.073691,30.5742453 309.655162,30.9811253 310.136253,31.4934926 C310.68607,32.0790553 311.100548,32.7851751 311.379686,33.6118519 C311.658825,34.4385286 311.798394,35.36854 311.798394,36.401886 L311.798394,36.8668916 L308.448736,36.8668916 L308.448736,36.401886 C308.448736,35.9713251 308.397983,35.5407643 308.296478,35.1102035 C308.194974,34.6796427 308.025799,34.2921379 307.788954,33.9476893 C307.55211,33.6032406 307.230678,33.3233761 306.824659,33.1080957 C306.41864,32.8928153 305.911116,32.7851751 305.302087,32.7851751 C304.743811,32.7851751 304.261663,32.8928153 303.855644,33.1080957 C303.449625,33.3233761 303.111275,33.6161575 302.840596,33.9864398 C302.569916,34.3567221 302.371136,34.7872829 302.244255,35.2781222 C302.117374,35.7689616 302.053934,36.2813289 302.053934,36.8152243 L302.053934,41.3619466 C302.053934,41.9475093 302.113145,42.4857103 302.231567,42.9765497 C302.349989,43.467389 302.536081,43.8936442 302.789843,44.2553153 C303.043605,44.6169864 303.377725,44.8968509 303.792203,45.0949089 C304.206681,45.2929669 304.709976,45.3919959 305.302087,45.3919959 C305.944951,45.3919959 306.473621,45.2929669 306.888099,45.0949089 C307.302577,44.8968509 307.624009,44.6299032 307.852395,44.2940658 C308.080781,43.9582283 308.237267,43.5707236 308.321855,43.1315516 C308.406442,42.6923795 308.448736,42.2402907 308.448736,41.775285 L308.448736,41.3102793 L311.798394,41.3102793 L311.798394,41.775285 C311.798394,43.9280891 311.244347,45.5857482 310.136253,46.7482624 C309.028159,47.9107766 307.41677,48.4920337 305.302087,48.4920337 C303.271991,48.4920337 301.664832,47.8634149 300.480609,46.6061774 C299.296387,45.3489398 298.704275,43.5147507 298.704275,41.1036101 L298.704275,37.0735608 C298.704275,35.9196578 298.856533,34.8820063 299.161047,33.9606061 C299.465561,33.039206 299.905416,32.2641965 300.480609,31.6355777 C301.055803,31.0069589 301.749419,30.5247308 302.561458,30.1888933 C302.899275,30.049181 303.25466,29.9385296 303.627612,29.8569392 L303.628272,27.621319 L305.868539,27.621319 Z M364.652599,30.5156412 C365.582782,30.5156412 366.400999,30.6430872 367.107249,30.8979792 C367.813499,31.1528712 368.403477,31.5054718 368.877181,31.955781 C369.350886,32.4060902 369.712623,32.9286188 369.962395,33.5233668 C370.212166,34.1181148 370.337052,34.7553448 370.337052,35.4350569 L370.337052,36.0467977 C370.337052,36.7774881 370.138957,37.4614483 369.742768,38.0986783 C369.346579,38.7359083 368.73507,39.2244513 367.90824,39.5643073 L367.90824,40.0231129 C368.511137,40.0910841 368.989148,40.3204869 369.342273,40.7113214 C369.695398,41.1021558 369.87196,41.594947 369.87196,42.189695 L369.87196,48.3580815 L366.461288,48.3580815 L366.461288,43.0053494 C366.461288,42.5975222 366.353628,42.2661626 366.138308,42.0112706 C365.922988,41.7563786 365.565556,41.6289326 365.066014,41.6289326 L361.138573,41.6289326 L361.138573,48.3580815 L357.727901,48.3580815 L357.727901,30.5156412 L364.652599,30.5156412 Z M348.803707,30.5156412 C349.73389,30.5156412 350.543494,30.6643282 351.232519,30.9617022 C351.921543,31.2590762 352.494295,31.6499106 352.950774,32.1342054 C353.407253,32.6185002 353.751765,33.1707662 353.984311,33.7910034 C354.216857,34.4112406 354.33313,35.0442225 354.33313,35.6899489 L354.33313,36.3016897 C354.33313,36.9644089 354.216857,37.6143835 353.984311,38.2516135 C353.751765,38.8888435 353.407253,39.4581023 352.950774,39.9593899 C352.494295,40.4606775 351.921543,40.8642566 351.232519,41.170127 C350.543494,41.4759974 349.73389,41.6289326 348.803707,41.6289326 L345.134651,41.6289326 L345.134651,48.3580815 L341.723979,48.3580815 L341.723,33.614 L340.106802,33.6147071 L340.106802,31.3870941 L341.723,31.387 L341.723979,30.5156412 L348.803707,30.5156412 Z M99.8778441,29.3368613 C100.928909,29.3368613 101.861306,29.4875576 102.675034,29.7889502 C103.488762,30.0903428 104.171107,30.4993755 104.722068,31.0160485 C105.27303,31.5327215 105.68837,32.1268954 105.968089,32.7985703 C106.247808,33.4702452 106.387668,34.1763649 106.387668,34.9169295 L106.387668,35.8469409 L103.03104,35.8469409 L103.03104,35.2269333 C103.03104,34.5035912 102.755559,33.8749724 102.204598,33.3410769 C101.653636,32.8071815 100.878051,32.5402338 99.8778441,32.5402338 C99.0302108,32.5402338 98.3605804,32.7167638 97.8689531,33.0698236 C97.3773258,33.4228835 97.1315121,33.900806 97.1315121,34.5035912 C97.1315121,34.8135949 97.1908465,35.0934595 97.3095151,35.3431847 C97.4281838,35.59291 97.635854,35.8168016 97.9325256,36.0148596 C98.2291973,36.2129176 98.6191086,36.3894475 99.1022596,36.5444494 C99.5854106,36.6994513 100.199945,36.845842 100.945862,36.9836215 C102.810655,37.3280701 104.234679,37.9050216 105.217934,38.714476 C106.201189,39.5239303 106.692816,40.7208894 106.692816,42.3053532 L106.692816,42.615357 C106.692816,43.4592562 106.54448,44.2213488 106.247808,44.9016349 C105.951137,45.581921 105.523082,46.1631781 104.963644,46.6454062 C104.404206,47.1276343 103.726099,47.4979167 102.929324,47.7562531 C102.132549,48.0145896 101.234057,48.1437579 100.23385,48.1437579 C99.0641161,48.1437579 98.0342416,47.9758392 97.1442266,47.6400017 C96.2542117,47.3041643 95.5125325,46.8391586 94.9191892,46.2449847 C94.3258459,45.6508107 93.8766002,44.9533022 93.5714522,44.1524591 C93.2663042,43.351616 93.1137302,42.4775775 93.1137302,41.5303437 L93.1137302,40.7553342 L96.4703582,40.7553342 L96.4703582,41.3753418 C96.4703582,42.4603551 96.7797443,43.3257823 97.3985166,43.9716236 C98.017289,44.6174648 98.9793528,44.9403854 100.284708,44.9403854 C101.301868,44.9403854 102.056262,44.7164938 102.547889,44.2687105 C103.039516,43.8209273 103.28533,43.2870318 103.28533,42.6670243 C103.28533,42.3742429 103.234472,42.0943784 103.132756,41.8274307 C103.03104,41.560483 102.853037,41.3193689 102.598747,41.1040885 C102.344457,40.8888081 101.996927,40.6950557 101.556158,40.5228314 C101.115389,40.3506071 100.555951,40.2042164 99.8778441,40.0836594 C98.9793528,39.9286575 98.1571485,39.7262939 97.4112311,39.4765686 C96.6653138,39.2268433 96.0168743,38.8953115 95.4659127,38.4819731 C94.914951,38.0686347 94.4868962,37.5519617 94.1817482,36.9319542 C93.8766002,36.3119466 93.7240262,35.5541595 93.7240262,34.658593 L93.7240262,34.5035912 C93.7240262,33.7630265 93.8723621,33.0784348 94.1690337,32.449816 C94.4657054,31.8211973 94.8810457,31.274385 95.4150547,30.8093793 C95.9490637,30.3443736 96.593265,29.9827026 97.3476586,29.7243661 C98.1020523,29.4660296 98.9454474,29.3368613 99.8778441,29.3368613 Z M232.263749,30.1673653 L232.263749,33.3790046 L227.911478,33.3790046 L227.911,39.74 L226.454727,39.740622 L226.454727,41.968235 L227.911,41.968 L227.911478,44.7981664 L232.263749,44.7981664 L232.263749,48.0098056 L220.139566,48.0098056 L220.139566,44.7981664 L224.491837,44.7981664 L224.491837,33.3790046 L220.139566,33.3790046 L220.139566,30.1673653 L232.263749,30.1673653 Z M180.022431,30.1673653 C180.952614,30.1673653 181.770831,30.2948113 182.477081,30.5497033 C183.183331,30.8045953 183.773309,31.1571959 184.247013,31.6075051 C184.720718,32.0578143 185.082455,32.580343 185.332227,33.175091 C185.581998,33.769839 185.706884,34.407069 185.706884,35.086781 L185.706884,35.6985218 C185.706884,36.4292122 185.508789,37.1131724 185.1126,37.7504024 C184.716411,38.3876325 184.104902,38.8761755 183.278072,39.2160315 L183.278072,39.6748371 C183.880969,39.7428083 184.35898,39.9722111 184.712105,40.3630455 C185.06523,40.7538799 185.241792,41.2466711 185.241792,41.8414191 L185.241792,48.0098056 L181.83112,48.0098056 L181.83112,42.6570735 C181.83112,42.2492463 181.72346,41.9178867 181.50814,41.6629947 C181.29282,41.4081027 180.935388,41.2806567 180.435846,41.2806567 L176.508405,41.2806567 L176.508405,48.0098056 L173.097733,48.0098056 L173.097733,30.1673653 L180.022431,30.1673653 Z M289.824424,30.1673653 L291.934527,46.3275184 L292.397721,46.3275184 L292.397721,30.1673653 L295.794471,30.1673653 L295.794471,48.0098056 L289.155367,48.0098056 L287.045265,31.8496525 L286.582071,31.8496525 L286.582,41.466 L285.016282,41.4666967 L285.016282,43.6943097 L286.582,43.694 L286.582071,48.0098056 L283.18532,48.0098056 L283.18532,30.1673653 L289.824424,30.1673653 Z M239.557658,30.1673653 L239.557658,44.7981664 L247.782704,44.7981664 L247.782704,48.0098056 L236.143488,48.0098056 L236.143488,30.1673653 L239.557658,30.1673653 Z M326.524737,30.1673653 L326.524737,33.3790046 L318.577254,33.3790046 L318.577254,37.4572766 L326.217092,37.4572766 L326.217092,40.6689159 L318.577254,40.6689159 L318.577254,44.7981664 L326.832381,44.7981664 L326.832381,48.0098056 L315.193165,48.0098056 L315.193165,30.1673653 L326.524737,30.1673653 Z M253.81574,33.7476967 L253.81574,35.9753097 L255.561,35.975 L255.56158,44.7981664 L263.786627,44.7981664 L263.786627,48.0098056 L252.14741,48.0098056 L252.14741,30.1673653 L255.56158,30.1673653 L255.561,31.519 L257.14274,31.5196418 L257.14274,33.7472548 L253.81574,33.7476967 Z M215.952182,30.1673653 L215.952182,33.3790046 L208.0047,33.3790046 L208.0047,37.4572766 L215.644538,37.4572766 L215.644538,40.6689159 L208.0047,40.6689159 L208.0047,44.7981664 L216.259827,44.7981664 L216.259827,48.0098056 L204.620611,48.0098056 L204.620611,30.1673653 L206.143,30.167 L206.143426,31.8804285 L208.383693,31.8804285 L208.383,30.167 L215.952182,30.1673653 Z M191.155028,30.1673653 L194.689098,46.3275184 L195.153429,46.3275184 L198.687499,30.1673653 L202.195774,30.1673653 L198.119984,48.0098056 L191.722543,48.0098056 L187.646753,30.1673653 L191.155028,30.1673653 Z M269.776223,30.1673653 L270.654497,33.9907454 L276.802417,33.9907454 L277.680691,30.1673653 L281.245451,30.1673653 L276.931575,48.0098056 L270.52534,48.0098056 L266.211463,30.1673653 L269.776223,30.1673653 Z M85.4894076,29.8190894 C86.4195908,29.8190894 87.2378076,29.9465354 87.9440579,30.2014275 L88.035,30.236 L88.0351579,32.3003883 L90.2754245,32.3003883 L90.2757421,31.8976278 C90.4851758,32.1848161 90.659663,32.4945452 90.7992037,32.8268151 C91.0489751,33.4215631 91.1738609,34.0587931 91.1738609,34.7385051 L91.1738609,35.3502459 C91.1738609,36.0809364 90.9757663,36.7648966 90.5795771,37.4021266 C90.1833879,38.0393566 89.5718786,38.5278996 88.745049,38.8677556 L88.745049,39.3265612 C89.3479456,39.3945324 89.8259564,39.6239352 90.1790815,40.0147696 C90.5322067,40.405604 90.7087692,40.8983952 90.7087692,41.4931433 L90.7087692,47.6615298 L87.2980972,47.6615298 L87.2980972,42.3087977 C87.2980972,41.9009705 87.1904371,41.5696109 86.9751169,41.3147189 C86.7597967,41.0598268 86.4023652,40.9323808 85.9028223,40.9323808 L81.9753819,40.9323808 L81.9753819,47.6615298 L78.5647099,47.6615298 L78.5647099,29.8190894 L85.4894076,29.8190894 Z M121.498862,29.8190894 L121.498862,33.0307287 L113.495479,33.0307287 L113.495479,37.1090008 L121.189054,37.1090008 L121.189054,40.32064 L113.495479,40.32064 L113.495479,44.4498905 L131.911118,44.4498905 L131.911118,47.6615298 L110.087587,47.6615298 L110.087587,29.8190894 L121.498862,29.8190894 Z M74.6849711,29.8190894 L74.6849711,47.6615298 L68.992,47.661 L68.9928915,46.2229695 L66.7526249,46.2229695 L66.752,47.661 L63.0457549,47.6615298 L63.0457549,44.4498905 L71.3008818,44.4498905 L71.3008818,40.32064 L63.6610438,40.32064 L63.6610438,37.1090008 L71.3008818,37.1090008 L71.3008818,33.0307287 L63.3533993,33.0307287 L63.3533993,29.8190894 L74.6849711,29.8190894 Z M49.0952048,29.8190894 L49.759,32.857 L48.8304919,32.8572916 L48.8304919,35.0849046 L50.246,35.084 L52.6292754,45.9792425 L53.0936058,45.9792425 L56.6276764,29.8190894 L60.1359508,29.8190894 L56.0601614,47.6615298 L49.6627198,47.6615298 L45.5869304,29.8190894 L49.0952048,29.8190894 Z M23.2700877,29.8190894 L23.2700877,44.4499045 L31.037,44.4498613 L31.0379101,29.8190894 L37.6770141,29.8190894 L39.7871169,45.9792425 L40.2503102,45.9792425 L40.25,37.869 L42.109692,37.8694208 L42.109692,35.6418078 L40.25,35.641 L40.2503102,29.8190894 L43.6470611,29.8190894 L43.647,41.877 L45.2589192,41.8772983 L45.2589192,44.1049113 L43.647,44.104 L43.6470611,47.6615298 L37.0079571,47.6615298 L34.8978543,31.5013767 L34.434661,31.5013767 L34.434661,47.6615298 L15.5372999,47.6615298 L15.5372999,44.4499045 L19.8676611,44.4499045 L19.8676611,33.0307924 L0,33.0307147 L0,29.8190894 L9.065,29.819 L9.06575919,31.8804285 L11.3060258,31.8804285 L11.306,29.819 L23.2700877,29.8190894 Z M276.053301,37.2023846 L271.377782,37.2023846 L273.495973,46.3275184 L273.960942,46.3275184 L276.053301,37.2023846 Z M379.308948,33.1334509 C378.733754,33.1334509 378.243148,33.2410912 377.837128,33.4563716 C377.431109,33.671652 377.101219,33.9601277 376.847457,34.3217988 C376.593695,34.6834699 376.407603,35.1140307 376.28918,35.6134813 C376.170758,36.1129318 376.111547,36.6468272 376.111547,37.2151675 L376.111547,41.6585552 C376.111547,42.2613403 376.162299,42.8124581 376.263804,43.3119087 C376.365309,43.8113592 376.542942,44.2419201 376.796704,44.6035912 C377.050466,44.9652622 377.380357,45.2451268 377.786376,45.4431847 C378.192395,45.6412427 378.699919,45.7402717 379.308948,45.7402717 C379.917977,45.7402717 380.425501,45.6412427 380.83152,45.4431847 C381.237539,45.2451268 381.56743,44.9652622 381.821192,44.6035912 C382.074954,44.2419201 382.252587,43.8113592 382.354092,43.3119087 C382.455597,42.8124581 382.506349,42.2613403 382.506349,41.6585552 L382.506,38.215 L384.157942,38.2150326 L384.157942,35.9874197 L382.405059,35.9865815 C382.383162,35.8601494 382.357714,35.7357826 382.328716,35.6134813 C382.210293,35.1140307 382.024201,34.6834699 381.770439,34.3217988 C381.516677,33.9601277 381.186787,33.671652 380.780767,33.4563716 C380.374748,33.2410912 379.884142,33.1334509 379.308948,33.1334509 Z M451,41.9682558 L451,44.1958688 L448.759733,44.1958688 L448.759733,41.9682558 L451,41.9682558 Z M380.503228,38.5769364 L380.503228,40.8045494 L378.232485,40.8045494 L378.232485,38.5769364 L380.503228,38.5769364 Z M364.394215,33.7272804 L361.138573,33.7272804 L361.138573,38.4172933 L364.394215,38.4172933 C365.221044,38.4172933 365.849779,38.2261243 366.280419,37.8437863 C366.71106,37.4614483 366.92638,36.9219269 366.92638,36.2252221 L366.92638,35.9193517 C366.92638,35.3246037 366.71106,34.8105714 366.280419,34.377255 C365.849779,33.9439386 365.221044,33.7272804 364.394215,33.7272804 Z M348.467807,33.7272804 L345.134651,33.7272804 L345.134,34.316 L343.273076,34.3167099 L343.273076,36.5443229 L345.134,36.544 L345.134651,38.4172933 L348.467807,38.4172933 C349.225734,38.4172933 349.824325,38.2133797 350.263578,37.8055525 C350.702831,37.3977253 350.922458,36.8709485 350.922458,36.2252221 L350.922458,35.9193517 C350.922458,35.2736253 350.702831,34.7468484 350.263578,34.3390212 C349.824325,33.931194 349.225734,33.7272804 348.467807,33.7272804 Z M179.764047,33.3790046 L176.508405,33.3790046 L176.508405,38.0690174 L179.764047,38.0690174 C180.590876,38.0690174 181.219611,37.8778484 181.650251,37.4955104 C182.080892,37.1131724 182.296212,36.573651 182.296212,35.8769462 L182.296212,35.5710758 C182.296212,34.9763278 182.080892,34.4622956 181.650251,34.0289792 C181.219611,33.5956628 180.590876,33.3790046 179.764047,33.3790046 Z M85.2310233,33.0307287 L81.9753819,33.0307287 L81.9753819,37.7207416 L85.2310233,37.7207416 C86.0578529,37.7207416 86.6865879,37.5295726 87.1172283,37.1472346 C87.5478687,36.7648966 87.7631889,36.2253752 87.7631889,35.5286703 L87.7631889,35.2227999 C87.7631889,34.6280519 87.5478687,34.1140197 87.1172283,33.6807033 C86.6865879,33.2473869 86.0578529,33.0307287 85.2310233,33.0307287 Z M92.8645851,26.8409106 L92.8645851,29.0685236 L90.6243185,29.0685236 L90.6243185,26.8409106 L92.8645851,26.8409106 Z M210.749021,26.5075126 L210.749021,28.7351255 L208.508755,28.7351255 L208.508755,26.5075126 L210.749021,26.5075126 Z M9.41465318,26.2840074 L9.41465318,28.5116204 L7.17438655,28.5116204 L7.17438655,26.2840074 L9.41465318,26.2840074 Z M76.3747537,16.798393 L76.3747537,19.026006 L74.1344871,19.026006 L74.1344871,16.798393 L76.3747537,16.798393 Z M80.1207733,12.8087747 L80.1207733,15.0363877 L77.8805067,15.0363877 L77.8805067,12.8087747 L80.1207733,12.8087747 Z M80.1207733,0 L80.1207733,2.22761299 L77.8805067,2.22761299 L77.8805067,0 L80.1207733,0 Z" id="Combined-Shape"></path>
        </g>
    </g>
</svg>