<?xml version="1.0" encoding="UTF-8"?>
<svg width="796px" height="747px" viewBox="0 0 796 747" version="1.1" xmlns="http://www.w3.org/2000/svg" xmlns:xlink="http://www.w3.org/1999/xlink">
    <!-- Generator: Sketch 63.1 (92452) - https://sketch.com -->
    <title>pixels copy 3</title>
    <desc>Created with Sketch.</desc>
    <g id="pixels-copy-3" stroke="none" stroke-width="1" fill="none" fill-rule="evenodd">
        <polygon id="Fill-3" fill="#FFFFFF" points="300 564 306.64 564 306.64 557.36 300 557.36"></polygon>
        <polygon id="Fill-3-Copy" fill="#FFFFFF" points="13 570.64 19.6399996 570.64 19.6399996 564 13 564"></polygon>
        <polygon id="Fill-3-Copy-2" fill="#FFFFFF" points="171.64 543.649999 178.28 543.649999 178.28 537.01 171.64 537.01"></polygon>
        <polygon id="Fill-26-Copy" fill="#FFFFFF" points="684.9 278.64 691.54 278.64 691.54 272 684.9 272"></polygon>
        <g id="comb" transform="translate(607.150000, 683.100000) rotate(180.000000) translate(-607.150000, -683.100000) translate(591.150000, 679.100000)" fill="#FFFFFF">
            <polygon id="Fill-1" points="29.4360427 0 29.4360427 4.84554762 26.9828634 4.84554762 26.9828634 0 24.5300356 0 24.5300356 4.84554762 22.0768563 4.84554762 22.0768563 0 19.6240285 0 19.6240285 4.84554762 17.1708492 4.84554762 17.1708492 0 14.7176698 0 14.7176698 4.84554762 12.264842 4.84554762 12.264842 0 9.81201424 0 9.81201424 4.84554762 7.35883492 4.84554762 7.35883492 0 4.90600712 0 4.90600712 4.84554762 2.45282781 4.84554762 2.45282781 0 9.73088277e-14 0 9.73088277e-14 7.30399956 31.8888705 7.30399956 31.8888705 0"></polygon>
        </g>
        <g id="comb-copy" transform="translate(637.030000, 683.100000) rotate(180.000000) translate(-637.030000, -683.100000) translate(621.030000, 679.100000)" fill="#FFFFFF">
            <polygon id="Fill-1" points="29.4360427 0 29.4360427 4.84554762 26.9828634 4.84554762 26.9828634 0 24.5300356 0 24.5300356 4.84554762 22.0768563 4.84554762 22.0768563 0 19.6240285 0 19.6240285 4.84554762 17.1708492 4.84554762 17.1708492 0 14.7176698 0 14.7176698 4.84554762 12.264842 4.84554762 12.264842 0 9.81201424 0 9.81201424 4.84554762 7.35883492 4.84554762 7.35883492 0 4.90600712 0 4.90600712 4.84554762 2.45282781 4.84554762 2.45282781 0 9.73088277e-14 0 9.73088277e-14 7.30399956 31.8888705 7.30399956 31.8888705 0"></polygon>
        </g>
        <g id="Group-12" transform="translate(151.720000, 583.490000)" fill="#FFFFFF">
            <path d="M3.64915025,16.4713778 C3.64915025,17.4465566 3.6386053,18.4286126 3.65694434,19.4097516 C3.6615291,19.6587041 3.57533559,19.6802525 3.36718741,19.6779601 C2.39613489,19.6674152 1.4246239,19.6729169 0.449903581,19.6729169 L0.449903581,19.6729169 L0.449903581,16.4713778 Z M6.95022447,0.556890789 L6.95022447,10.0895272 L10.1219626,10.0895272 L10.1219626,13.2699763 L19.6931109,13.2699763 L19.6931109,16.4582196 L3.75327018,16.4582196 L3.75327018,0.556890789 L6.95022447,0.556890789 Z M13.3250604,0.555240275 L13.3250604,3.71643342 L16.4977155,3.71643342 L16.4977155,6.89459018 L19.6928359,6.89459018 L19.6928359,10.0823749 C16.507802,10.0800826 13.3218511,10.0773317 10.1363587,10.0750393 L10.1363587,10.0750393 L10.1363587,0.555240275 L13.3250604,0.555240275 Z M19.6929276,0.518745572 L19.6929276,3.70653033 C18.6324722,3.70377948 17.5724753,3.7014871 16.5124784,3.69919472 L16.5124784,3.69919472 L16.5124784,0.518745572 L19.6929276,0.518745572 Z" id="Combined-Shape"></path>
        </g>
    </g>
</svg>