<?xml version="1.0" encoding="UTF-8"?>
<svg width="451px" height="294px" viewBox="0 0 451 294" version="1.1" xmlns="http://www.w3.org/2000/svg" xmlns:xlink="http://www.w3.org/1999/xlink">
    <!-- Generator: Sketch 63.1 (92452) - https://sketch.com -->
    <title>Group 4</title>
    <desc>Created with Sketch.</desc>
    <g id="MOCK-FINALS" stroke="none" stroke-width="1" fill="none" fill-rule="evenodd">
        <g id="Home" transform="translate(-769.000000, -1711.000000)" fill="#FFFFFF">
            <g id="Group-4" transform="translate(769.000000, 1711.000000)">
                <polygon id="Fill-26-Copy-3" points="379.4 9.6 389 9.6 389 -4.52970994e-14 379.4 -4.52970994e-14"></polygon>
                <polygon id="Fill-26-Copy-8" points="369.4 19.6 379 19.6 379 10 369.4 10"></polygon>
                <polygon id="Fill-26-Copy-10" points="441.4 46.6 451 46.6 451 37 441.4 37"></polygon>
                <polygon id="Fill-26-Copy-11" points="431.4 36.6 441 36.6 441 27 431.4 27"></polygon>
                <polygon id="Fill-26-Copy-12" points="218.4 75.6 228 75.6 228 66 218.4 66"></polygon>
                <polygon id="Fill-26-Copy-12" points="98.4 19.6 108 19.6 108 10 98.4 10"></polygon>
                <polygon id="Fill-26-Copy-12" points="88.4 9.6 98 9.6 98 -4.52970994e-14 88.4 -4.52970994e-14"></polygon>
                <polygon id="Fill-26-Copy-9" points="359.4 29.6 369 29.6 369 20 359.4 20"></polygon>
                <polygon id="Fill-11" points="-4.08562073e-14 293.91935 12.6 293.91935 12.6 281.31935 -4.08562073e-14 281.31935"></polygon>
            </g>
        </g>
    </g>
</svg>