<?xml version="1.0" encoding="UTF-8"?>
<svg width="24px" height="24px" viewBox="0 0 24 24" version="1.1" xmlns="http://www.w3.org/2000/svg" xmlns:xlink="http://www.w3.org/1999/xlink">
    <!-- Generator: Sketch 63.1 (92452) - https://sketch.com -->
    <title>tree</title>
    <desc>Created with Sketch.</desc>
    <g id="tree" stroke="none" stroke-width="1" fill="none" fill-rule="evenodd">
        <g id="Group-12" fill="#8086AE">
            <path d="M4.39656656,19.8450335 C4.39656656,21.0199477 4.3838618,22.2031477 4.40595704,23.3852428 C4.41148085,23.6851857 4.30763324,23.7111476 4.0568523,23.7083857 C2.88690951,23.6956809 1.71641434,23.7023095 0.542052507,23.7023095 L0.542052507,23.7023095 L0.542052507,19.8450335 Z M8.37376442,0.670952758 L8.37376442,12.1560568 L12.1951356,12.1560568 L12.1951356,15.9879233 L23.7266397,15.9879233 L23.7266397,19.8291802 L4.52201227,19.8291802 L4.52201227,0.670952758 L8.37376442,0.670952758 Z M16.0542897,0.668964187 L16.0542897,4.47763063 L19.8767656,4.47763063 L19.8767656,8.30673516 L23.7263083,8.30673516 L23.7263083,12.1474397 C19.888918,12.1446778 16.050423,12.1413635 12.2124804,12.1386016 L12.2124804,12.1386016 L12.2124804,0.668964187 L16.0542897,0.668964187 Z M23.7264187,0.624994665 L23.7264187,4.4656992 C22.4487617,4.46238491 21.171657,4.45962301 19.8945523,4.4568611 L19.8945523,4.4568611 L19.8945523,0.624994665 L23.7264187,0.624994665 Z" id="Combined-Shape"></path>
        </g>
    </g>
</svg>