<?xml version="1.0" encoding="UTF-8"?>
<svg width="39px" height="9px" viewBox="0 0 39 9" version="1.1" xmlns="http://www.w3.org/2000/svg" xmlns:xlink="http://www.w3.org/1999/xlink">
    <!-- Generator: Sketch 63.1 (92452) - https://sketch.com -->
    <title>comb</title>
    <desc>Created with Sketch.</desc>
    <g id="comb" stroke="none" stroke-width="1" fill="none" fill-rule="evenodd">
        <polygon id="Fill-1" fill="#155C4D" points="35.4651117 0 35.4651117 5.83800918 32.509474 5.83800918 32.509474 0 29.5542598 0 29.5542598 5.83800918 26.598622 5.83800918 26.598622 0 23.6434078 0 23.6434078 5.83800918 20.6877701 5.83800918 20.6877701 0 17.7321323 0 17.7321323 5.83800918 14.7769181 5.83800918 14.7769181 0 11.8217039 0 11.8217039 5.83800918 8.86606617 5.83800918 8.86606617 0 5.91085195 0 5.91085195 5.83800918 2.95521422 5.83800918 2.95521422 0 1.17239551e-13 0 1.17239551e-13 8.79999948 38.4203259 8.79999948 38.4203259 0"></polygon>
    </g>
</svg>