<svg id="Layer_1" data-name="Layer 1" xmlns="http://www.w3.org/2000/svg" xmlns:xlink="http://www.w3.org/1999/xlink" viewBox="0 0 211 768"><defs><style>.cls-1{fill:none;}.cls-2{clip-path:url(#clip-path);}.cls-3{clip-path:url(#clip-path-2);}.cls-4{clip-path:url(#clip-path-3);}.cls-5{clip-path:url(#clip-path-4);}.cls-6{clip-path:url(#clip-path-5);}.cls-7{clip-path:url(#clip-path-6);}.cls-8{fill:#adb481;}.cls-9{fill:#c0683a;}</style><clipPath id="clip-path"><rect class="cls-1" x="-1318" y="20.41" width="194.04" height="194.04"/></clipPath><clipPath id="clip-path-2"><rect class="cls-1" x="-1092.18" y="20.41" width="194.04" height="194.04"/></clipPath><clipPath id="clip-path-3"><rect class="cls-1" x="-1092.18" y="242.89" width="194.04" height="194.04"/></clipPath><clipPath id="clip-path-4"><rect class="cls-1" x="-1318" y="242.89" width="194.04" height="194.04"/></clipPath><clipPath id="clip-path-5"><rect class="cls-1" x="-1092.18" y="465.36" width="194.04" height="194.04"/></clipPath><clipPath id="clip-path-6"><rect class="cls-1" x="-1316.33" y="462.02" width="194.04" height="194.04"/></clipPath></defs><rect class="cls-1" x="-277.18" y="0.12" width="765.88" height="765.88"/><path class="cls-8" d="M122.58,635.52c3.14,0,6.28.09,9.41,0,1.42-.06,1.67.42,1.62,1.7-.11,2.7,0,5.41-.06,8.11,0,1.12.34,1.32,1.35,1.3,2.87-.06,5.73,0,8.6,0,.94,0,1.15.28,1.14,1.17,0,3.3,0,6.6,0,9.89a3.16,3.16,0,0,1,.47,2.18c0,20.6,0,85.2,0,105.8a3.17,3.17,0,0,1-.52,2.31H122.53c-.73-.89-.52-2-.52-3,0-22,0-88,0-110.08,0-5.63,0-11.26,0-16.89C122,637.12,121.85,636.21,122.58,635.52Z"/><path class="cls-8" d="M67.25,657.61c0-3.29.07-6.59,0-9.89,0-.89.21-1.2,1.15-1.17,2.86.06,5.73,0,8.59,0,1,0,1.4-.18,1.36-1.3-.09-2.7,0-5.41-.06-8.11,0-1.28.2-1.76,1.62-1.7,3.13.13,6.27,0,9.4,0,.84.85.57,1.93.57,2.93q0,24.6,0,49.2c0,11.15,0,66.3,0,77.45,0,.95.17,2-.52,2.8H67.31a3,3,0,0,1-.53-2.15c0-20.71,0-85.42,0-106.13A3,3,0,0,1,67.25,657.61Z"/><path class="cls-8" d="M155.72,668.66c3.13,0,6.27.09,9.4,0,1.43,0,1.67.42,1.62,1.71-.1,2.7,0,5.4-.06,8.11,0,1.11.35,1.32,1.36,1.29,2.86-.06,5.73,0,8.59,0,1,0,1.16.28,1.15,1.18,0,3.29,0,6.59,0,9.89a3,3,0,0,1,.47,2c0,9.67,0,63.33,0,73a3,3,0,0,1-.52,2.15H155.67a2.94,2.94,0,0,1-.52-2.15c0-17,0-78,0-95A2.49,2.49,0,0,1,155.72,668.66Z"/><path class="cls-8" d="M34.12,690.76c0-3.3.06-6.6,0-9.89,0-.9.2-1.2,1.14-1.18,2.87.06,5.73,0,8.6,0,1,0,1.39-.18,1.35-1.29-.09-2.71,0-5.41-.06-8.11,0-1.29.2-1.76,1.62-1.71,3.13.13,6.27,0,9.41,0a2.53,2.53,0,0,1,.57,2.12c0,17,0,78,0,95a2.94,2.94,0,0,1-.52,2.15H34.17a2.94,2.94,0,0,1-.52-2.15c0-9.66,0-63.32,0-73A2.9,2.9,0,0,1,34.12,690.76Z"/><path class="cls-9" d="M122.58,635.52c0,.7,0,1.4,0,2.1V767.9h-11c-.73-.89-.52-2-.52-3,0-17.86,0-79.72,0-97.58q0-20.05,0-40.1c0-1-.22-2,.52-2.8,3.3,0,6.6,0,9.9,0,.91,0,1.17.25,1.16,1.17C122.51,628.92,122.56,632.22,122.58,635.52Z"/><path class="cls-8" d="M111.49,624.45V767.9h-11c-.73-.89-.52-2-.52-3,0-17.85,0-79.71,0-97.57q0-20.05,0-40.1a4.07,4.07,0,0,1,.52-2.81l0,0c1.56-.74,9.53-.74,11.09,0Z"/><path class="cls-9" d="M100.44,624.45V767.9h-11c0-28.76,0-101.52,0-130.28,0-.7,0-1.4,0-2.1,0-3.3.07-6.6,0-9.9,0-.92.25-1.18,1.17-1.17C93.84,624.5,97.14,624.46,100.44,624.45Z"/><path class="cls-9" d="M177.76,767.9c0-11,0-66.1.05-77.14,3.13,0,6.27.08,9.4,0,1.42-.06,1.67.42,1.62,1.71-.1,2.64,0,5.29-.06,7.94-.06,1.27.37,1.5,1.53,1.46,2.75-.08,5.51,0,8.26-.05,1.11,0,1.33.34,1.31,1.36-.07,2.86,0,5.72-.05,8.59,0,.94.29,1.16,1.19,1.14,3.29,0,6.59,0,9.88,0,0,3.31,0,50.61,0,53.91,0,1-.2,1.17-1.17,1.17C199.09,767.88,188.42,767.9,177.76,767.9Z"/><path class="cls-9" d="M34.12,690.76c0,11,0,66.09.05,77.14-10.52,0-21,0-31.56.05C1.13,768,1,767.51,1,766.24c.1-3.13,0-50.26,0-53.39,3.3,0,6.6,0,9.89,0,.89,0,1.2-.2,1.18-1.14-.06-2.87,0-5.73,0-8.59,0-1,.2-1.4,1.3-1.36,2.76.08,5.51,0,8.27.05,1.15,0,1.59-.19,1.53-1.46-.12-2.65,0-5.3-.07-7.94-.05-1.29.21-1.77,1.63-1.71C27.85,690.84,31,690.76,34.12,690.76Z"/><path class="cls-9" d="M155.72,668.66c0,6.8-.05,13.61-.05,20.41,0,11.61,0,67.22,0,78.83h-11V659.56c0-.65,0-1.3,0-1.95,3.19,0,6.37.08,9.56,0,1.27,0,1.49.37,1.47,1.53C155.63,662.29,155.7,665.48,155.72,668.66Z"/><path class="cls-9" d="M56.26,767.9V670.6c0-.64,0-1.29,0-1.94,0-3.18.09-6.37,0-9.55,0-1.16.2-1.57,1.47-1.53,3.18.11,6.37,0,9.55,0,0,2,0,4,0,6,0,20.1,0,84.19,0,104.29Z"/><path class="cls-8" d="M144.62,0c0,3.28-.05,56.56,0,59.84,0,1-.28,1.25-1.25,1.23-3.28,0-6.56,0-9.85,0-.72-1.55-.71-59.54,0-61.07Z"/><path class="cls-8" d="M122.53,0c0,3.69,0,57.38,0,61.07l-.24.2c-3.63.33-7.26.72-10.86-.22a2.41,2.41,0,0,1-.42-1.52c0-2.62,0-55.25,0-57.88A2.36,2.36,0,0,1,111.49,0Z"/><path class="cls-8" d="M100.44,0c0,3.69,0,57.38,0,61.07l-.24.2a45.28,45.28,0,0,1-10.6,0,1,1,0,0,1-.44-.44c-.5-3.32-.22-56.66-.16-60A1.43,1.43,0,0,1,89.4,0Z"/><path class="cls-8" d="M78.35,0c0,3.69,0,57.38,0,61.07-3.28,0-6.56-.06-9.84,0-1,0-1.28-.2-1.25-1.23.07-3.28,0-56.56,0-59.84Z"/><path class="cls-9" d="M34.17,303.81c3.19,0,6.38-.09,9.58,0,1.22,0,1.5-.29,1.5-1.5,0-10.45,0-20.9,0-31.35l0,0c3.19,0,6.39-.09,9.58,0,1.22,0,1.51-.29,1.5-1.5,0-10.29,0-20.58,0-30.87,0-.27,0-.54,0-.81l0,0c3.19,0,6.39-.08,9.58,0,1.22,0,1.5-.29,1.5-1.5-.06-10.29,0-20.58,0-30.87,0-.27,0-.54,0-.81l0,0c3.2,0,6.39-.09,9.58,0,1.22,0,1.51-.3,1.5-1.51,0-10.28,0-20.57,0-30.86,0-.27,0-.54,0-.81l0,0c3.19,0,6.38-.08,9.56,0,1.2,0,1.52-.25,1.52-1.48-.06-10.55,0-21.09,0-31.64a1.74,1.74,0,0,1,1.45-.54c2.78,0,5.56-.06,8.33,0a2.15,2.15,0,0,1,1.36.42,3.28,3.28,0,0,1,.43,2c0,1.52,0,3,0,4.55q0,127.58,0,255.15c0,1.17.24,2.39-.4,3.5-.13.1-.24.24-.4.26a48.68,48.68,0,0,1-10.24.05,1.24,1.24,0,0,1-.55-.32l0,0a3.14,3.14,0,0,1-.5-2.15c0-2.27,0-4.53,0-6.79,0-1.17-.46-1.65-1.63-1.63-2.26,0-4.52,0-6.78,0a3.17,3.17,0,0,1-2.16-.5l0,0a3,3,0,0,1-.5-2.15c0-2.26,0-4.53,0-6.79,0-1.17-.46-1.65-1.63-1.63-2.26,0-4.53,0-6.79,0a3.09,3.09,0,0,1-2.15-.5l0,0a3.14,3.14,0,0,1-.5-2.15c0-2.26,0-4.53,0-6.79,0-1.17-.46-1.64-1.63-1.63-2.26,0-4.52,0-6.78,0a3.07,3.07,0,0,1-2.16-.5l0,0a3.09,3.09,0,0,1-.5-2.17c0-2.05,0-4.11,0-6.17s-.08-2.21-2.16-2.23-4.11,0-6.17,0a2.84,2.84,0,0,1-2.15-.5l-.11-.65a3.29,3.29,0,0,1-.45-2.17c0-2.11,0-4.22,0-6.32,0-1.23-.44-1.76-1.7-1.74-2.22.05-4.43,0-6.65,0a2.85,2.85,0,0,1-2.15-.5l-.1-11a1.22,1.22,0,0,1-.31-.55,63.43,63.43,0,0,1,0-9.94,1.2,1.2,0,0,1,.31-.56l.09-22.1Z"/><path class="cls-8" d="M100.39,138.38l-11,.05c-6.87,0-13.75-.07-20.62,0-1.21,0-1.51-.28-1.5-1.49.07-6.45.06-12.89,0-19.34,0-1.07.28-1.35,1.33-1.32,2.87.07,5.74.06,8.61,0,.93,0,1.17.27,1.15,1.18-.05,2.92,0,5.84,0,8.77,0,.94.28,1.16,1.18,1.14,2.86,0,5.74-.07,8.6,0,1.11,0,1.31-.33,1.31-1.35,0-6.93,0-13.86,0-20.79l0,0h11.08l.21.25a3.59,3.59,0,0,1,.28,1.74q0,14.5,0,29C101,137,101.05,137.8,100.39,138.38Z"/><path class="cls-8" d="M100.46,469.8c-6.92,0-13.83,0-20.75,0-1.17,0-1.4-.33-1.39-1.43q.09-9.65,0-19.3c0-1.1.22-1.44,1.39-1.43,6.92.07,13.83,0,20.75,0l.2.24a3.59,3.59,0,0,1,.28,1.74q0,9.06,0,18.12a3.84,3.84,0,0,1-.28,1.74Z"/><path class="cls-9" d="M67.32,514c-7,0-14,0-20.95,0-.89,0-1.18-.22-1.18-1.16q.06-9.9,0-19.81c0-.92.26-1.17,1.17-1.17q9.91.06,19.81,0c.94,0,1.16.29,1.15,1.18,0,7,0,14,0,21Z"/><path class="cls-8" d="M67.27,525c0,7,0,14.06,0,21.09,0,.85-.22,1.08-1.07,1.08q-10-.06-20,0c-.8,0-1.11-.16-1.11-1,0-6.65.06-13.31,0-20,0-1.2.57-1.11,1.37-1.11H67.31Z"/><path class="cls-8" d="M89.43,580.28c-6.92,0-13.85,0-20.77,0-1.17,0-1.39-.33-1.38-1.43q.07-9.66,0-19.31c0-1.14.27-1.42,1.41-1.41q9.65.09,19.3,0c1.1,0,1.45.21,1.44,1.39-.07,6.92,0,13.84,0,20.77Z"/><path class="cls-8" d="M56.3,237.8c-6.92,0-13.84,0-20.77,0-1.16,0-1.4-.32-1.39-1.43q.09-9.66,0-19.31c0-1.12.25-1.45,1.41-1.42,2.8.1,5.62.08,8.43,0,1,0,1.29.19,1.26,1.23-.08,2.81,0,5.62-.05,8.43,0,1.11.2,1.48,1.38,1.44,2.7-.1,5.41,0,8.11-.06,1.2,0,1.67.2,1.62,1.54-.12,3.19,0,6.38,0,9.57Z"/><path class="cls-8" d="M45.25,271c-6.92,0-13.84,0-20.76,0-1.17,0-1.4-.32-1.39-1.43q.07-9.65,0-19.3c0-1.13.25-1.46,1.4-1.42,2.81.09,5.62.07,8.43,0,1,0,1.3.19,1.27,1.23-.08,2.81,0,5.63-.06,8.44,0,1.1.21,1.48,1.39,1.43,2.7-.09,5.41,0,8.11-.05,1.19,0,1.66.19,1.61,1.54-.11,3.18,0,6.38,0,9.57Z"/><path class="cls-8" d="M34.21,303.76c-6.92,0-13.85,0-20.77,0-1.16,0-1.4-.32-1.39-1.43q.09-9.66,0-19.31c0-1.12.25-1.45,1.41-1.42,2.8.1,5.62.08,8.43,0,1,0,1.29.19,1.26,1.23-.08,2.81,0,5.62,0,8.43,0,1.11.2,1.49,1.38,1.44,2.7-.1,5.41,0,8.11-.05,1.2,0,1.67.19,1.62,1.53-.12,3.19,0,6.38,0,9.57Z"/><path class="cls-8" d="M34.12,325.86v11.05c-6.87,0-13.73,0-20.6,0-1.24,0-1.48-.34-1.47-1.52.06-6.43,0-12.87,0-19.3,0-1,.22-1.37,1.31-1.34,2.81.08,5.62.07,8.43,0,1,0,1.39.19,1.35,1.3-.09,2.7.05,5.41-.06,8.11-.05,1.29.2,1.76,1.62,1.7C27.84,325.78,31,325.86,34.12,325.86Z"/><path class="cls-8" d="M67.34,204.66c-6.92,0-13.84,0-20.76,0-1.16,0-1.4-.32-1.39-1.43q.08-9.66,0-19.31c0-1.13.25-1.46,1.4-1.42,2.81.09,5.62.07,8.43,0,1,0,1.3.19,1.27,1.23-.08,2.81,0,5.62-.06,8.43,0,1.1.21,1.48,1.39,1.44,2.7-.1,5.41,0,8.11-.06,1.19,0,1.66.2,1.61,1.54-.11,3.19,0,6.38,0,9.57Z"/><path class="cls-9" d="M111.51,547.17l0,33.13-.23.2a41.39,41.39,0,0,1-10.55,0l-.23-.2q0-16.56,0-33.13l.22-.22c2.26-.64,4.57-.22,6.86-.29a8.79,8.79,0,0,1,3.81.29Z"/><path class="cls-8" d="M78.39,171.52c-6.92,0-13.84,0-20.76,0-1.17,0-1.41-.32-1.4-1.43q.09-9.65,0-19.3c0-1.13.25-1.46,1.41-1.42,2.8.09,5.62.07,8.43,0,1,0,1.29.2,1.26,1.23-.08,2.81,0,5.63,0,8.44,0,1.1.2,1.48,1.38,1.44,2.7-.1,5.41,0,8.11-.06,1.2,0,1.67.19,1.62,1.54-.12,3.18,0,6.38,0,9.57Z"/><path class="cls-9" d="M111.51,624.47H100.42q0-16.58,0-33.16l.23-.2a42.33,42.33,0,0,1,10.55,0l.23.2Z"/><path class="cls-8" d="M89.42,105.22c-7,0-14,0-20.92,0-1,0-1.22-.32-1.22-1.27q.07-9.82,0-19.63c0-1,.22-1.28,1.24-1.25,2.86.07,5.73.06,8.59,0,1,0,1.3.18,1.27,1.22-.08,2.81,0,5.63-.06,8.44,0,1.09.19,1.48,1.38,1.44,2.81-.1,5.62,0,8.43,0,.93,0,1.32.12,1.3,1.2-.09,3.29-.05,6.59-.05,9.89Z"/><path class="cls-8" d="M111.46,83.12v22.14l-.24.2c-3.31.55-6.63.25-10,.18a1.44,1.44,0,0,1-.85-.42l0,0V83.12l.24-.2a42.17,42.17,0,0,1,10.53,0Z"/><path class="cls-9" d="M111.47,469.79q0,11,0,22.08l-.21.22c-2.27.64-4.58.22-6.86.29a8.77,8.77,0,0,1-3.81-.28l-.22-.23q0-11,0-22.07l0,0a1.35,1.35,0,0,1,.7-.38,49.52,49.52,0,0,1,10.11.14Z"/><path class="cls-9" d="M111.47,425.6v22.13l-.24.21a49.52,49.52,0,0,1-10.11.14,1.35,1.35,0,0,1-.7-.38l0,0V425.6l.23-.2a41.39,41.39,0,0,1,10.55,0Z"/><path class="cls-9" d="M100.46,425.6c-3.33,0-6.67,0-10,0-.83,0-1.1-.2-1.08-1.06.06-3.34.05-6.67.07-10a1.77,1.77,0,0,1,1.33-.48c2.84-.06,5.68-.07,8.53,0a2,2,0,0,1,1.2.4,2.63,2.63,0,0,1,.44,1.7c0,2.54,0,5.08,0,7.62a2.57,2.57,0,0,1-.53,1.83Z"/><path class="cls-8" d="M100.39,414.57H89.45c0-3.68,0-7.36-.08-11h11a1.74,1.74,0,0,1,.54,1.47c.06,2.7.06,5.41,0,8.11A1.74,1.74,0,0,1,100.39,414.57Z"/><path class="cls-8" d="M100.46,83.12c-3.33,0-6.67,0-10,0-.84,0-1.09-.22-1.07-1.07.05-3.34,0-6.68,0-10l.23-.2a44.83,44.83,0,0,1,10.61,0,1,1,0,0,1,.44.43,58.94,58.94,0,0,1,.15,10,1.45,1.45,0,0,1-.43.85Z"/><path class="cls-8" d="M67.28,381.43c3.3,0,6.59,0,9.89,0,.92,0,1.21.28,1.2,1.2-.05,3.29,0,6.59,0,9.89-3.3,0-6.61-.05-9.91,0-.91,0-1.17-.25-1.16-1.17C67.33,388,67.29,384.73,67.28,381.43Z"/><path class="cls-9" d="M89.37,502.92c0-3.29,0-6.58,0-9.88,0-.91.26-1.17,1.17-1.16,3.29.05,6.58,0,9.87,0l.07.07a1.69,1.69,0,0,1,.44,1.18c.07,2.86.08,5.71,0,8.56,0,.8-.27,1.61-1.21,1.65-3.37.14-6.75.45-10.11-.18Z"/><path class="cls-9" d="M78.32,514c0-3.29.05-6.59,0-9.88,0-.92.25-1.17,1.16-1.16,3.29,0,6.59,0,9.88,0l.06.07a1.69,1.69,0,0,1,.44,1.18c.07,2.85.08,5.71,0,8.56,0,.8-.27,1.61-1.2,1.65-3.38.14-6.76.45-10.12-.18Z"/><path class="cls-9" d="M67.28,514l11,0,.07.07a.93.93,0,0,1,.31.55,46.32,46.32,0,0,1-.15,10.26l-.23.22-11-.08,0,0q0-5.53,0-11Z"/><path class="cls-8" d="M56.23,370.38c3.3,0,6.6,0,9.9,0,.92,0,1.21.28,1.19,1.2,0,3.3,0,6.6,0,9.89-3.3,0-6.6-.05-9.9,0-.92,0-1.17-.25-1.16-1.16C56.28,377,56.24,373.68,56.23,370.38Z"/><path class="cls-8" d="M78.33,61l11.09,0,0,0c.78,1.56.78,9.53,0,11.09l0-.05c-3.34,0-6.68,0-10,0-.84,0-1.08-.22-1.07-1.07C78.37,67.7,78.34,64.36,78.33,61Z"/><path class="cls-9" d="M89.37,536.12c-3.3,0-6.59,0-9.88,0-.91,0-1.17-.25-1.16-1.16,0-3.29,0-6.59,0-9.88l.07-.06a1.69,1.69,0,0,1,1.18-.44c2.85-.07,5.7-.08,8.56,0,.8,0,1.6.27,1.64,1.21.14,3.37.45,6.75-.17,10.11Z"/><path class="cls-9" d="M100.41,547.17c-3.29,0-6.58,0-9.87,0-.92,0-1.18-.25-1.17-1.16,0-3.29,0-6.59,0-9.88l.06-.07a1.91,1.91,0,0,1,1.35-.45c2.75-.05,5.51-.06,8.26,0,.94,0,1.78.31,1.83,1.41a79.33,79.33,0,0,1,0,9.38,1.21,1.21,0,0,1-.36.71Z"/><path class="cls-8" d="M45.27,359.33c3.07,0,6.14.07,9.21,0,1.35,0,1.88.22,1.82,1.73-.13,3.12,0,6.25,0,9.38-3.31,0-6.61,0-9.91,0-.71,0-1.19,0-1.16-1C45.28,366,45.25,362.69,45.27,359.33Z"/><path class="cls-8" d="M78.32,392.48c3.3,0,6.6,0,9.9,0,.92,0,1.21.27,1.19,1.19,0,3.3,0,6.6,0,9.9-3.3,0-6.6-.05-9.9,0-.92,0-1.17-.24-1.16-1.16C78.38,399.08,78.33,395.78,78.32,392.48Z"/><path class="cls-9" d="M89.39,580.32l11.07,0,0,0c.78,1.56.78,9.53,0,11.09l0,0c-3.33,0-6.67,0-10,0-.83,0-1.1-.22-1.08-1.07.05-3.34,0-6.67.05-10Z"/><path class="cls-8" d="M34.22,348c3.18,0,6.35,0,9.53,0,1,0,1.53.18,1.49,1.38-.1,3.12-.06,6.24-.08,9.36-3.24,0-6.48,0-9.72,0-.9,0-1.34-.08-1.3-1.18C34.24,354.33,34.21,351.15,34.22,348Z"/><path class="cls-9" d="M177.81,336.91c0,3.79-.07,7.58-.11,11.37a2.58,2.58,0,0,1-2,.5c-2.11,0-4.22,0-6.33,0s-2.15.08-2.16,2.22,0,4.12,0,6.17a3.14,3.14,0,0,1-.49,2.17l0,0a3.14,3.14,0,0,1-2.15.5c-2.27,0-4.53,0-6.79,0-1.17,0-1.65.47-1.63,1.63,0,2.27,0,4.53,0,6.79a3.12,3.12,0,0,1-.5,2.16l0,0a3,3,0,0,1-2.15.5c-2.26,0-4.52,0-6.79,0-1.16,0-1.64.46-1.63,1.63,0,2.26,0,4.53,0,6.79a3.1,3.1,0,0,1-.51,2.15l0,0a3.09,3.09,0,0,1-2.15.5c-2.27,0-4.53,0-6.79,0-1.17,0-1.65.46-1.63,1.63,0,2.26,0,4.53,0,6.79a3.09,3.09,0,0,1-.5,2.15l0,0a3.14,3.14,0,0,1-2.15.5c-2.26,0-4.52,0-6.79,0-1.16,0-1.64.46-1.63,1.63,0,2.26,0,4.52,0,6.79a3.1,3.1,0,0,1-.51,2.15l0,0c-.09.06-.17.16-.27.18a30.89,30.89,0,0,1-10.89-.12,3.29,3.29,0,0,1-.44-2c0-1.62,0-3.25,0-4.87q0-127.41,0-254.83c0-1.17-.24-2.39.4-3.5a1,1,0,0,1,.55-.32,60.1,60.1,0,0,1,10,0,1,1,0,0,1,.66.42c0,10.55,0,21.09,0,31.64,0,1.24.32,1.51,1.51,1.48,3.19-.07,6.38,0,9.57,0l0,0c0,10.5.05,21,0,31.51,0,1.35.31,1.72,1.67,1.67,3.13-.1,6.28,0,9.42,0l0,0c0,10.51,0,21,0,31.51,0,1.35.3,1.72,1.66,1.68,3.14-.11,6.28,0,9.42,0l0,0c0,10.5.05,21,0,31.51,0,1.35.31,1.71,1.67,1.67,3.13-.11,6.28,0,9.42,0l0,0c0,10.5,0,21,0,31.5,0,1.33.28,1.74,1.65,1.68,2.71-.12,5.42,0,8.12-.06,1.07,0,1.34.28,1.33,1.33,0,6.82,0,13.64,0,20.46a1.1,1.1,0,0,1,.3.56,63.43,63.43,0,0,1,0,9.94A1.11,1.11,0,0,1,177.81,336.91Z"/><path class="cls-8" d="M122.53,138.43l-11-.05c-.66-.58-.57-1.37-.57-2.12q0-14.44,0-28.9a3,3,0,0,1,.55-2.14l-.05,0h11.09l0,0c0,6.87,0,13.75,0,20.63,0,1.17.22,1.57,1.48,1.52,2.81-.11,5.63-.07,8.44,0,.9,0,1.2-.2,1.18-1.14-.06-2.93,0-5.85,0-8.77,0-.91.21-1.2,1.15-1.18q4.38.09,8.77,0c.91,0,1.17.24,1.16,1.16,0,6.61,0,13.21,0,19.82,0,1.14-.48,1.16-1.33,1.15C136.39,138.39,129.46,138.42,122.53,138.43Z"/><path class="cls-9" d="M111.47,447.73c7,0,13.93,0,20.9,0,1,0,1.23.3,1.23,1.26q-.06,9.81,0,19.62c0,1-.2,1.27-1.23,1.26-7-.05-13.94,0-20.9,0l0,0a3,3,0,0,1-.53-2.15q0-8.93,0-17.84a3,3,0,0,1,.53-2.15Z"/><path class="cls-8" d="M144.63,514c0-6.92,0-13.85,0-20.77,0-1.17.34-1.39,1.44-1.38q9.65.08,19.3,0c1.14,0,1.42.28,1.41,1.42q-.09,9.65,0,19.3c0,1.1-.22,1.45-1.39,1.44-6.92-.07-13.84,0-20.76,0Z"/><path class="cls-9" d="M144.59,525.08c7,0,14,0,20.95-.05.87,0,1.2.17,1.19,1.13q-.06,9.92,0,19.82c0,.89-.21,1.19-1.15,1.18-6.6,0-13.21,0-19.81,0-1.13,0-1.17-.47-1.16-1.34,0-6.93,0-13.86,0-20.79Z"/><path class="cls-9" d="M122.55,580.3c0-7,0-14,0-20.95,0-.9.22-1.19,1.15-1.18q9.92.06,19.82,0c.91,0,1.17.25,1.16,1.16q-.06,9.92,0,19.82c0,.94-.28,1.16-1.18,1.15-7,0-14,0-21,0Z"/><path class="cls-8" d="M144.63,204.7c0-3.24.05-6.49,0-9.73,0-1.19.36-1.41,1.45-1.38,2.81.08,5.62,0,8.43.06,1.05,0,1.24-.32,1.22-1.28-.06-2.86,0-5.73,0-8.59,0-.83.06-1.26,1.09-1.24,3,.08,5.95.06,8.92,0,.86,0,1.07.25,1.07,1.08,0,6.66,0,13.31,0,20,0,1-.4,1.1-1.23,1.09-7,0-13.95,0-20.92,0Z"/><path class="cls-8" d="M155.67,237.85c0-3.25.06-6.5,0-9.74,0-1.19.36-1.41,1.45-1.38,2.81.08,5.63,0,8.43.06,1.05,0,1.25-.31,1.22-1.27-.06-2.87,0-5.74,0-8.6,0-.83.06-1.26,1.08-1.23,3,.07,5.95.06,8.92,0,.87,0,1.08.25,1.07,1.09,0,6.65,0,13.3,0,19.95,0,1-.4,1.1-1.22,1.09-7,0-13.95,0-20.93,0Z"/><path class="cls-8" d="M166.72,271c0-3.25.05-6.49,0-9.74,0-1.19.36-1.4,1.45-1.37,2.81.08,5.62,0,8.43.05,1.05,0,1.24-.31,1.22-1.27-.06-2.86,0-5.73,0-8.6,0-.82.06-1.26,1.09-1.23,3,.07,5.95.06,8.92,0,.86,0,1.07.24,1.07,1.08,0,6.65,0,13.3,0,20,0,1-.4,1.1-1.23,1.1-7,0-13.95,0-20.92,0Z"/><path class="cls-8" d="M199.85,292.88c0,3.25,0,6.5,0,9.75,0,.92-.24,1.17-1.16,1.16q-9.9-.06-19.81,0c-.91,0-1.18-.23-1.17-1.16q.09-4.38,0-8.77c0-.91.23-1.18,1.15-1.16,2.93.06,5.85,0,8.77,0,.92,0,1.18-.24,1.16-1.16-.06-2.92,0-5.84,0-8.77,0-.92.24-1.18,1.16-1.16,2.92.06,5.85.06,8.77,0,.92,0,1.17.25,1.16,1.17C199.81,286.17,199.85,289.53,199.85,292.88Z"/><path class="cls-8" d="M177.81,336.91V325.86c3.13,0,6.27-.08,9.4,0,1.42.06,1.67-.41,1.62-1.7-.1-2.7,0-5.4-.05-8.11,0-.9.08-1.34,1.18-1.3,2.92.09,5.84.07,8.76,0,.94,0,1.15.28,1.15,1.18,0,6.59-.05,13.19,0,19.78,0,1.12-.43,1.18-1.32,1.18C191.65,336.9,184.73,336.91,177.81,336.91Z"/><path class="cls-8" d="M133.58,171.56c0-3.24.06-6.49,0-9.73,0-1.19.36-1.41,1.45-1.38,2.81.08,5.62,0,8.43.05,1.05,0,1.24-.31,1.22-1.27-.06-2.86,0-5.73,0-8.6,0-.82.07-1.25,1.09-1.23,3,.08,5.95.06,8.92,0,.87,0,1.08.24,1.07,1.08,0,6.65,0,13.31,0,20,0,1-.4,1.09-1.23,1.09-7,0-13.94,0-20.92,0Z"/><path class="cls-8" d="M122.55,105.26c0-3.3,0-6.59,0-9.89,0-1.08.36-1.22,1.29-1.2,2.81.06,5.62,0,8.43,0,1.19,0,1.41-.35,1.38-1.44-.08-2.81,0-5.62,0-8.43,0-.83.07-1.26,1.09-1.23,3,.07,5.95.06,8.92,0,.86,0,1.07.25,1.07,1.09,0,6.65,0,13.3,0,20,0,1-.39,1.1-1.22,1.09q-10.47,0-20.92,0Z"/><path class="cls-8" d="M111.54,403.52h11q0,5.52-.08,11a1.91,1.91,0,0,1-1.49.49c-2.68.05-5.37,0-8,0a2.45,2.45,0,0,1-1.53-.42A2.68,2.68,0,0,1,111,413c0-2.54,0-5.09,0-7.63A2.1,2.1,0,0,1,111.54,403.52Z"/><path class="cls-9" d="M111.54,414.57h10.94c0,3.33,0,6.66.07,10,0,.86-.25,1.08-1.08,1.06-3.34,0-6.67,0-10,0l0,0C110.71,424,110.73,416,111.54,414.57Z"/><path class="cls-8" d="M122.53,403.55c0-3.3,0-6.6,0-9.9,0-.92.28-1.21,1.2-1.19,3.3,0,6.6,0,9.89,0,0,3.3,0,6.6,0,9.9,0,.92-.25,1.18-1.16,1.16C129.14,403.5,125.84,403.54,122.53,403.55Z"/><path class="cls-8" d="M133.58,392.5c0-3.3,0-6.6,0-9.89,0-.92.28-1.21,1.2-1.2,3.29,0,6.59,0,9.89,0,0,3.3-.05,6.6,0,9.9,0,.92-.24,1.18-1.16,1.17C140.18,392.45,136.88,392.49,133.58,392.5Z"/><path class="cls-9" d="M111.51,491.87c3.29,0,6.59.06,9.88,0,.91,0,1.17.25,1.16,1.16,0,3.3,0,6.59,0,9.88l-.23.23c-1.62.6-3.31.25-5,.31s-3,0-4.52,0c-.95,0-1.75-.34-1.8-1.44a83.32,83.32,0,0,1,0-9.35,1.11,1.11,0,0,1,.36-.71Z"/><path class="cls-8" d="M144.62,381.45c0-3.29,0-6.59,0-9.89,0-.92.28-1.21,1.2-1.2,3.3.05,6.6,0,9.89,0,0,3.3-.05,6.61,0,9.91,0,.91-.25,1.17-1.16,1.16C151.23,381.4,147.93,381.44,144.62,381.45Z"/><path class="cls-9" d="M122.56,502.92c3.29,0,6.58.05,9.87,0,.92,0,1.18.24,1.17,1.16,0,3.29,0,6.59,0,9.88l-.23.23c-1.62.59-3.3.25-5,.3s-3,0-4.52,0c-1,0-1.75-.35-1.8-1.44a81.19,81.19,0,0,1,0-9.36,1.22,1.22,0,0,1,.36-.7Z"/><path class="cls-9" d="M144.59,514v11.09l0,0-11,0-.23-.22c-.65-2.38-.22-4.81-.28-7.21,0-1.2-.35-2.49.44-3.6l.06-.07,11,.06Z"/><path class="cls-9" d="M133.61,525.07c0,3.29-.06,6.59,0,9.88,0,.91-.25,1.18-1.17,1.16-3.29,0-6.58,0-9.87,0l-.23-.23c-.6-1.62-.25-3.3-.31-5,0-1.5,0-3,0-4.52,0-.95.35-1.75,1.44-1.8a83.32,83.32,0,0,1,9.35,0,1.16,1.16,0,0,1,.71.36Z"/><path class="cls-8" d="M155.67,370.41c0-3.3,0-6.6,0-9.9,0-.92.28-1.21,1.2-1.2,3.29.05,6.59,0,9.89,0,0,3.3-.05,6.6,0,9.9,0,.92-.24,1.17-1.16,1.16C162.27,370.35,159,370.4,155.67,370.41Z"/><path class="cls-9" d="M122.56,536.12c0,3.29,0,6.59,0,9.88,0,.91-.25,1.17-1.16,1.16-3.29,0-6.59,0-9.88,0l-.06-.07a1.92,1.92,0,0,1-.46-1.35q-.08-4.12,0-8.26c0-.94.32-1.77,1.42-1.83a79.17,79.17,0,0,1,9.37,0,1.21,1.21,0,0,1,.71.36Z"/><path class="cls-8" d="M166.72,359.36c0-3.13.09-6.25-.05-9.37-.06-1.51.47-1.78,1.82-1.74,3.07.1,6.14,0,9.21,0,0,3.36,0,6.72.08,10.07,0,1-.45,1-1.16,1C173.32,359.33,170,359.35,166.72,359.36Z"/><path class="cls-9" d="M122.51,580.26c0,3.34,0,6.68,0,10,0,.85-.23,1.09-1.08,1.08-3.33-.05-6.67,0-10,0l0,0c-.77-1.56-.77-9.53,0-11.09l0,0h11.08Z"/><path class="cls-8" d="M122.51,61.07l11.09,0c0,3.33,0,6.67,0,10,0,.85-.23,1.09-1.08,1.07-3.33,0-6.67,0-10,0l-.21-.24c-.54-3.31-.24-6.63-.18-9.95a1.51,1.51,0,0,1,.43-.85Z"/><path class="cls-8" d="M122.51,72.07c0,3.34,0,6.68,0,10,0,.85-.23,1.09-1.07,1.07-3.34,0-6.68,0-10,0l.05,0a1.58,1.58,0,0,1-.46-1,64.41,64.41,0,0,1,.16-9.82,1,1,0,0,1,.42-.46c3.35-.56,6.72-.25,10.08-.18a1.4,1.4,0,0,1,.84.43Z"/><path class="cls-8" d="M111.51,61c0,3.69,0,7.39-.05,11.09l.05-.05c-1.56.78-9.53.78-11.09,0l0,.05c-.78-1.56-.78-9.53,0-11.09l0,0Z"/><path class="cls-8" d="M122.49,536.05c-3.22,0-6.45.07-9.67,0-1.06,0-1.37.3-1.36,1.36.05,3.22,0,6.45,0,9.67h-11c0-3.22-.07-6.45,0-9.67,0-1.06-.3-1.38-1.35-1.36-3.23,0-6.45,0-9.68,0,0-3.22-.06-6.45,0-9.67,0-1.06-.3-1.37-1.36-1.36-3.22.05-6.45,0-9.67,0V514c3.22,0,6.45-.07,9.67,0,1.06,0,1.38-.3,1.36-1.36,0-3.22,0-6.45,0-9.67,3.23,0,6.45-.07,9.68,0,1,0,1.37-.3,1.35-1.35,0-3.23,0-6.45,0-9.68h11c0,3.23.06,6.45,0,9.68,0,1.05.3,1.37,1.36,1.35,3.22-.05,6.45,0,9.67,0,0,3.22.07,6.45,0,9.67,0,1.06.3,1.38,1.36,1.36,3.22,0,6.44,0,9.67,0v11c-3.23,0-6.45.06-9.67,0-1.06,0-1.38.3-1.36,1.36C122.56,529.6,122.51,532.83,122.49,536.05Z"/></svg>